<?xml version="1.0" encoding="utf-8"?>
<!DOCTYPE svg PUBLIC "-//W3C//DTD SVG 1.1//EN" "http://www.w3.org/Graphics/SVG/1.1/DTD/svg11.dtd">
<svg version="1.1" xmlns="http://www.w3.org/2000/svg" xmlns:xlink="http://www.w3.org/1999/xlink"
 x="0px" y="0px" viewBox="0 0 64 64">
  <defs>
    <!--
    -->
    <style>
      g        { display: none;   }
      g:target { display: inline; }
    </style>

<svg viewBox="0 0 64 64" id="calendar"><use xlink:href="#calendar-bg" x="0" y="0"/></svg>
<svg viewBox="0 0 64 64" id="drop-up"><use xlink:href="#drop-up-bg" x="0" y="0"/></svg>
<svg viewBox="0 0 64 64" id="home"><use xlink:href="#home-bg" x="0" y="0"/></svg>
<svg viewBox="0 0 64 64" id="info-ok"><use xlink:href="#info-ok-bg" x="0" y="0"/></svg>
<svg viewBox="0 0 64 64" id="checkbox"><use xlink:href="#checkbox-bg" x="0" y="0"/></svg>
<svg viewBox="0 0 64 64" id="close"><use xlink:href="#close-bg" x="0" y="0"/></svg>
<svg viewBox="0 0 64 64" id="drop-right"><use xlink:href="#drop-right-bg" x="0" y="0"/></svg>
<svg viewBox="0 0 64 64" id="info-alert"><use xlink:href="#info-alert-bg" x="0" y="0"/></svg>
<svg viewBox="0 0 64 64" id="checkbox-check"><use xlink:href="#checkbox-check-bg" x="0" y="0"/></svg>
<svg viewBox="0 0 64 64" id="drop-down"><use xlink:href="#drop-down-bg" x="0" y="0"/></svg>
<svg viewBox="0 0 64 64" id="info-ko"><use xlink:href="#info-ko-bg" x="0" y="0"/></svg>
<svg viewBox="0 0 64 64" id="star-outline"><use xlink:href="#star-outline-bg" x="0" y="0"/></svg>
<svg viewBox="0 0 64 64" id="drop-left"><use xlink:href="#drop-left-bg" x="0" y="0"/></svg>
<svg viewBox="0 0 64 64" id="radio"><use xlink:href="#radio-bg" x="0" y="0"/></svg>
<svg viewBox="0 0 64 64" id="star-full"><use xlink:href="#star-full-bg" x="0" y="0"/></svg>
<svg viewBox="0 0 64 64" id="radio-check"><use xlink:href="#radio-check-bg" x="0" y="0"/></svg>
<svg viewBox="0 0 64 64" id="user"><use xlink:href="#user-bg" x="0" y="0"/></svg>
<svg viewBox="0 0 64 64" id="gelo"><use xlink:href="#gelo-bg" x="0" y="0"/></svg>
<svg viewBox="0 0 64 64" id="edit"><use xlink:href="#edit-bg" x="0" y="0"/></svg>
<svg viewBox="0 0 64 64" id="siccita"><use xlink:href="#siccita-bg" x="0" y="0"/></svg>
<svg viewBox="0 0 64 64" id="trash"><use xlink:href="#trash-bg" x="0" y="0"/></svg>
<svg viewBox="0 0 64 64" id="alluvione"><use xlink:href="#alluvione-bg" x="0" y="0"/></svg>
<svg viewBox="0 0 64 64" id="download"><use xlink:href="#download-bg" x="0" y="0"/></svg>
<svg viewBox="0 0 384 64" id="list-preview"><use xlink:href="#calendar-bg" x="0" y="0"/><use xlink:href="#drop-up-bg" x="64" y="0"/><use xlink:href="#home-bg" x="128" y="0"/><use xlink:href="#info-ok-bg" x="192" y="0"/><use xlink:href="#checkbox-bg" x="256" y="0"/><use xlink:href="#close-bg" x="320" y="0"/></svg>

  </defs>

<!-- calendar -->
<g viewBox="0 0 64 64" id="calendar-bg">
	<path d="m51.8,60H12.6c-3.03,0-5.6-2.57-5.6-5.6V15.2c0-3.03,2.57-5.6,5.6-5.6h2.8v-5.6h5.6v5.6h22.4v-5.6h5.6v5.6h2.8c3.03,0,5.6,2.57,5.6,5.6v39.2c0,3.03-2.57,5.6-5.6,5.6ZM10.97,21.97v31.73c0,1.17.93,2.33,2.33,2.33h38.27c1.17,0,2.33-.93,2.33-2.33h0v-31.73H10.97Zm21.23,21.23h-14v-14h14v14Z"/>
</g>
<!-- drop-up -->
<g viewBox="0 0 64 64" id="drop-up-bg">
	<path id="e" data-name="Drop Up" d="m60,44l-3.5,4-24.5-24.5L7.5,48l-3.5-4,28-28,28,28Z"/>
</g>
<!-- home -->
<g viewBox="0 0 64 64" id="home-bg">
	<path id="m" data-name="Home" d="m24.08,56.59v-8.53c0-2.19,1.71-3.9,3.9-3.9h8.04c2.19,0,3.9,1.71,3.9,3.9h0v8.53c0,1.95,1.46,3.41,3.41,3.41h5.61c2.68,0,5.12-.97,6.82-2.68,1.71-1.71,2.92-4.14,2.92-6.82v-24.37c0-1.95-.97-3.9-2.44-5.36l-18.77-14.87c-3.17-2.68-7.8-2.44-10.97.24l-18.28,14.62c-1.71,1.22-2.92,3.17-2.92,5.12v24.37c0,5.36,4.39,9.51,9.75,9.51h5.36c.97,0,1.71-.24,2.44-.97.73-.49.97-1.46,1.22-2.19h0Z"/>
</g>
<!-- info-ok -->
<g viewBox="0 0 64 64" id="info-ok-bg">
	<circle cx="32" cy="32" r="28" style="fill: #2e9b65;"/>
	<path d="m27.24,42.36c-.84,0-1.4-.28-1.96-.84l-7.84-7.84c-1.12-1.12-1.12-2.8,0-3.92s2.8-1.12,3.92,0l5.88,5.88,15.12-15.12c1.12-1.12,2.8-1.12,3.92,0s1.12,2.8,0,3.92l-17.08,17.08c-.56.56-1.12.84-1.96.84Z" style="fill: #f5fbff;"/>
</g>
<!-- checkbox -->
<g viewBox="0 0 64 64" id="checkbox-bg">
	<rect x="7.24" y="7" width="50" height="50" style="fill: #fff;"/>
	<path d="m57.24,7v50H7.24V7h50m3-3H4.24v56h56V4h0Z"/>
</g>
<!-- close -->
<g viewBox="0 0 64 64" id="close-bg">
	<rect x="-3.2" y="27.6" width="70.4" height="8.8" transform="translate(-13.25 32) rotate(-45)"/>
	<rect x="27.6" y="-3.2" width="8.8" height="70.4" transform="translate(-13.25 32) rotate(-45)"/>
</g>
<!-- drop-right -->
<g viewBox="0 0 64 64" id="drop-right-bg">
	<path id="e" data-name="Drop Right" d="m20,60l-4-3.5,24.5-24.5L16,7.5l4-3.5,28,28-28,28Z"/>
</g>
<!-- info-alert -->
<g viewBox="0 0 64 64" id="info-alert-bg">
	<path id="g" data-name="Icon ionic-md-alert" d="m32,60c-15.4,0-28-12.6-28-28S16.6,4,32,4s28,12.6,28,28-12.6,28-28,28Zm3.36-42h-6.44v5.32h6.44v-5.32Zm0,11.76h-6.44v17.36h6.44v-17.36Z" style="fill: #ff720a;"/>
</g>
<!-- checkbox-check -->
<g viewBox="0 0 64 64" id="checkbox-check-bg">
	<rect x="7" y="7" width="50" height="50" style="fill: #fff;"/>
	<path d="m57,7v50H7V7h50m3-3H4v56h56V4h0Z"/>
	<path id="h" data-name="Shape-2" d="m23.42,31.13l5.42,6.09,16.7-19.7c.94-1.11,2.59-1.27,3.72-.37,1.09.87,1.28,2.45.41,3.55l-.05.06-16.9,20.1c-1.71,2.03-4.74,2.29-6.77.59-.14-.11-.27-.24-.39-.37l-6.04-6.35c-1.01-1.06-.97-2.73.09-3.74l.03-.03c1.07-.99,2.74-.92,3.73.15l.04.03Z"/>
</g>
<!-- drop-down -->
<g viewBox="0 0 64 64" id="drop-down-bg">
	<path id="e" data-name="Drop Down" d="m32,48L4,20l3.5-4,24.5,24.5,24.5-24.5,3.5,4-28,28Z"/>
</g>
<!-- info-ko -->
<g viewBox="0 0 64 64" id="info-ko-bg">
	<path d="m32,60c-15.4,0-28-12.6-28-28S16.6,4,32,4s28,12.6,28,28-12.6,28-28,28Z" style="fill: #c90202;"/>
	<rect x="29.2" y="9.32" width="5.6" height="44.8" transform="translate(-13.06 31.92) rotate(-45)" style="fill: #fff;"/>
	<rect x="9.6" y="28.92" width="44.8" height="5.6" transform="translate(-13.06 31.92) rotate(-45)" style="fill: #fff;"/>
</g>
<!-- star-outline -->
<g viewBox="0 0 64 64" id="star-outline-bg">
	<path d="m32,15.43l3.5,10.73.47,1.63h13.3l-9.33,6.77-1.4.93.47,1.63,3.5,10.97-9.1-6.77-1.4-.93-1.4.93-9.1,6.77,3.5-10.97.47-1.63-1.4-.93-9.33-6.77h13.3l.47-1.63,3.5-10.73m0-7.47l-5.83,17.5H7.73l14.93,10.97-5.6,17.73,14.93-10.97,14.93,10.97-5.6-17.73,14.93-10.97h-18.43l-5.83-17.5Z"/>
	<path d="m4,4h56v56H4V4Z" style="fill: none;"/>
</g>
<!-- drop-left -->
<g viewBox="0 0 64 64" id="drop-left-bg">
	<path id="e" data-name="Drop Left" d="m44,60l-28-28L44,4l4,3.5-24.5,24.5,24.5,24.5-4,3.5Z"/>
</g>
<!-- radio -->
<g viewBox="0 0 64 64" id="radio-bg">
	<circle cx="32.25" cy="31.52" r="25" style="fill: #fff;"/>
	<path id="k" data-name="Tracciato 13360" d="m32.25,3.52c15.46,0,28,12.54,28,28s-12.54,28-28,28S4.25,46.98,4.25,31.52h0c0-15.45,12.51-27.99,27.97-28,.01,0,.02,0,.03,0Zm0,3.21c-13.69,0-24.79,11.1-24.79,24.79,0,13.69,11.1,24.79,24.79,24.79,13.69,0,24.79-11.1,24.79-24.79-.05-13.67-11.12-24.74-24.79-24.79Z"/>
</g>
<!-- star-full -->
<g viewBox="0 0 64 64" id="star-full-bg">
	<path d="m32,7.97l-5.83,17.5H7.73l14.93,10.97-5.6,17.73,14.93-10.97,14.93,10.97-5.6-17.73,14.93-10.97h-18.43l-5.83-17.5Z"/>
	<path d="m4,4h56v56H4V4Z" style="fill: none;"/>
</g>
<!-- radio-check -->
<g viewBox="0 0 64 64" id="radio-check-bg">
	<circle cx="32" cy="32" r="25" style="fill: #fff;"/>
	<path id="j" data-name="Tracciato 13360" d="m32,4c15.46,0,28,12.54,28,28s-12.54,28-28,28S4,47.46,4,32h0c0-15.45,12.51-27.99,27.97-28,.01,0,.02,0,.03,0Zm0,3.21c-13.69,0-24.79,11.1-24.79,24.79,0,13.69,11.1,24.79,24.79,24.79,13.69,0,24.79-11.1,24.79-24.79-.05-13.67-11.12-24.74-24.79-24.79Z"/>
	<circle cx="32" cy="32" r="12"/>
</g>
<!-- user -->
<g viewBox="0 0 64 64" id="user-bg">
	<path id="m" data-name="Tracciato 14489" d="m32,36.88c-13.25,0-24,10.35-24,23.12h3.26c0-11.49,8.81-19.98,20.74-19.98s20.74,8.49,20.74,19.98h3.26c0-12.76-10.75-23.12-24-23.12Z"/>
	<path d="m32,3.83c-6.34,0-11.5,5.16-11.5,11.5v6.67c0,.26.01.52.03.78.4,5.98,5.39,10.72,11.47,10.72s11.5-5.16,11.5-11.5v-6.72c-.03-6.32-5.18-11.45-11.5-11.45Zm8.5,18.17c0,4.69-3.81,8.5-8.5,8.5s-8.5-3.81-8.5-8.5v-6.67c0-4.68,3.81-8.5,8.5-8.5s8.47,3.79,8.5,8.45v6.72Z"/>
	<path d="m20.53,22.78h-.03v-.78c0,.26.01.52.03.78Z"/>
</g>
<!-- gelo -->
<g viewBox="0 0 64 64" id="gelo-bg">
<path id="b" d="m55.64,35.08l-8.44,3.64-3.46-1.97,4.94-3.38c.45-.31.72-.82.73-1.36,0-.54-.27-1.05-.72-1.36l-4.94-3.42,3.45-1.96,8.44,3.64c.85.37,1.85-.01,2.22-.85.37-.84-.01-1.82-.87-2.19l-6.17-2.66,5.18-2.94c.81-.46,1.08-1.47.62-2.27-.47-.79-1.5-1.07-2.3-.61l-5.18,2.94.75-6.59c.1-.91-.56-1.73-1.49-1.84-.93-.1-1.76.56-1.86,1.47l-1.02,9.03-3.5,1.99-.54-5.97h0c-.05-.54-.36-1.02-.84-1.29-.48-.27-1.06-.29-1.56-.06l-5.39,2.5v-3.89l7.42-5.38c.37-.26.62-.65.7-1.09.07-.44-.04-.89-.31-1.25-.27-.36-.68-.6-1.13-.66-.45-.06-.91.06-1.27.33l-5.42,3.93v-5.89c0-.92-.76-1.66-1.69-1.66s-1.69.74-1.69,1.66v5.89l-5.42-3.93c-.36-.27-.82-.39-1.27-.33-.45.06-.86.3-1.13.66-.27.36-.38.81-.31,1.25.07.44.33.84.7,1.09l7.42,5.38v3.78l-5.12-2.51h0c-.49-.24-1.07-.23-1.56.03-.48.26-.81.74-.87,1.28l-.69,6.19-3.58-2.04-1.02-9.03h0c-.1-.91-.94-1.57-1.86-1.47-.93.1-1.59.92-1.49,1.83l.74,6.6-5.18-2.94h0c-.81-.46-1.84-.19-2.3.61-.47.79-.19,1.81.62,2.27l5.18,2.94-6.17,2.66h0c-.41.18-.73.51-.89.92-.16.41-.15.87.03,1.27.37.84,1.37,1.22,2.22.85l8.44-3.64,3.36,1.91-4.81,3.18c-.46.3-.74.81-.75,1.35-.01.54.25,1.06.69,1.38l5.06,3.62-3.55,2.02-8.44-3.64c-.85-.37-1.85.01-2.22.85-.37.84.01,1.82.87,2.19l6.17,2.66-5.18,2.94c-.81.46-1.08,1.47-.62,2.27s1.5,1.07,2.3.61l5.18-2.94-.75,6.59h0c-.1.91.56,1.73,1.49,1.83.06,0,.13.01.19.01.86,0,1.58-.64,1.67-1.48l1.02-9.03,3.39-1.93.42,5.77h0c.04.54.35,1.03.82,1.31.47.28,1.05.31,1.56.09l5.63-2.5v4l-7.42,5.38c-.75.54-.91,1.58-.36,2.32.55.74,1.61.9,2.36.35l5.43-3.93v5.89c0,.92.75,1.66,1.69,1.66s1.69-.74,1.69-1.66v-5.89l5.42,3.93c.36.27.82.39,1.27.33s.86-.3,1.13-.66c.27-.36.38-.81.31-1.25-.07-.44-.33-.84-.7-1.09l-7.42-5.38v-3.9l5.36,2.53c.5.23,1.08.21,1.56-.05.48-.27.8-.75.85-1.29l.57-5.99,3.48,1.98,1.02,9.03c.1.84.82,1.48,1.67,1.48.06,0,.13,0,.19-.01.93-.1,1.59-.92,1.49-1.83l-.75-6.59,5.18,2.94c.81.46,1.84.19,2.3-.61.47-.79.19-1.81-.62-2.27l-5.18-2.94,6.17-2.66h0c.85-.37,1.24-1.35.87-2.19-.37-.84-1.37-1.22-2.22-.85h0Zm-10.87-3.08l-4.26,2.91-5.13-2.92,5.15-2.93,4.24,2.93Zm-5.98-5.78l-5.1,2.9v-5.89l4.64-2.15.46,5.14Zm-8.47-3.06v5.96l-5.05-2.87.59-5.27,4.46,2.19Zm-6.9,5.87l5.21,2.96-5.07,2.89-4.32-3.09,4.18-2.76Zm1.71,8.79l5.18-2.95v5.8l-4.82,2.14-.37-5Zm8.56,2.92v-5.86l5.13,2.92-.49,5.13-4.63-2.19Z"/>
</g>
<!-- edit -->
<g viewBox="0 0 64 64" id="edit-bg">
	<path d="m12.1,46.46c.08.02.16.03.25.03s.17-.01.25-.03l8.37-2.36s.08-.03.1-.05l31.17-31.19c.92-.99,1.41-2.29,1.36-3.66-.05-1.37-.63-2.63-1.63-3.57-.95-.89-2.19-1.37-3.49-1.37s-2.54.49-3.49,1.37l-31.32,31.31s-.04.06-.05.1l-2.2,8.24c-.06.25-.03.51.1.73s.34.38.59.45ZM44.38,10.15l2.55-2.57c.46-.41,1.02-.63,1.61-.63.67,0,1.32.29,1.77.79.81.9.81,2.27,0,3.17l-2.57,2.59-.35.36-.36-.35-2.65-2.65-.35-.35.35-.35Zm-28.24,28.22l25.56-25.57.35-.35.35.35,2.65,2.65.35.35-.35.35-25.37,25.37-.33.33-.35-.31-2.83-2.46-.41-.35.38-.38Z"/>
	<path d="m5.44,56.26h53.12c.8,0,1.44.72,1.44,1.6v.8c0,.88-.65,1.6-1.44,1.6H5.44c-.8,0-1.44-.72-1.44-1.6v-.8c0-.88.65-1.6,1.44-1.6Z"/>
</g>
<!-- siccita -->
<g viewBox="0 0 64 64" id="siccita-bg">
<path d="m47.86,45.26c-2.26-.19-4.48-.7-6.59-1.51l-5.43,2.98c-.22.12-.47.19-.73.19h-9.35c-.28,0-.56-.08-.8-.23l-4.87-3.03h0c-1.41.19-2.82.3-4.24.33-2.95,0-3.17-.77-3.38-1.48h0c-.5-1.05-1.07-2.06-1.71-3.02-.44-.71-.22-1.63.47-2.08.7-.45,1.63-.25,2.08.44.65.99,1.24,2.02,1.77,3.08,1.58.02,3.15-.07,4.72-.29l7.07-5.91-3.64-3.92h0c-.33-.35-.47-.84-.38-1.31.09-.47.39-.87.82-1.09l4.24-2.08-3.29-3.71h0c-.39-.44-.49-1.06-.26-1.6l2.13-5.05h0c.25-.57.81-.93,1.43-.93l3.9.08c2.92-.25,5.85-.08,8.72.51l2.85-3.5c.29-.35.72-.56,1.18-.56h5.74,0c.85-.83,1.94-1.37,3.12-1.53,1.14-.07,2.28-.07,3.42,0,.84.06,1.47.78,1.41,1.61-.07.83-.78,1.46-1.61,1.41-.99-.06-1.98-.06-2.97,0-.62.16-1.17.52-1.58,1.01-.29.34-.71.53-1.16.54h-5.66l-1.97,2.42c1.6,1.61,3.85,4.33,4.81,5.51h4.01,0c.84,0,1.52.68,1.52,1.52s-.68,1.52-1.52,1.52h-4.73c-.46,0-.9-.21-1.18-.57-.03-.04-3.17-3.95-5.09-5.88h0c-.14-.13-.31-.23-.49-.31-.05-.02-.09-.03-.14-.05-2.81-.7-5.72-.91-8.6-.62l-3.01-.06-1.36,3.22,3.58,4.04c3.34.31,7.08.57,8.07.49.49-.31,1.71-1.24,2.68-2.03.65-.53,1.61-.43,2.13.22.53.65.43,1.61-.22,2.13-1.07.9-2.19,1.72-3.37,2.47-.6.24-1.24.32-1.88.24-1.32,0-3.66-.13-7.86-.52l-3.81,1.87,2.82,3.04c1.62-.14,3.25-.11,4.87.08,1.71.23,3.35.85,4.8,1.8l5.9-.94-2.62-2.37c-.6-.57-.64-1.51-.08-2.12.55-.61,1.5-.67,2.12-.13l4.53,4.1h5.8c.84,0,1.52.68,1.52,1.52s-.68,1.52-1.52,1.52h-6.27l-9.52,1.52h0c-.08.01-.16.02-.24.02-.36,0-.7-.13-.97-.35-1.12-.83-2.44-1.36-3.83-1.55-1.48-.17-2.97-.19-4.45-.05l-6.68,5.58,3.18,1.98h8.52l5.69-3.13c.38-.21.84-.24,1.25-.09,1.92.78,3.94,1.31,6,1.57.83-.05,1.55.58,1.61,1.41.06.84-.58,1.56-1.41,1.61h0ZM5.9,28.36c2.23-.19,4.24-1.4,5.45-3.29l3.33-.31,3.42,5.23c.24.37.64.62,1.09.68l1.19.15c.06,0,.12.01.19.01.8,0,1.46-.63,1.51-1.43.05-.8-.53-1.5-1.33-1.6l-.49-.06-2.86-4.38,2.94-2.94c.29-.28.46-.67.46-1.08,0-.41-.16-.8-.44-1.08-.29-.29-.68-.45-1.08-.44-.41,0-.79.17-1.08.46l-3.42,3.42-4.42.41h0c-.5.05-.94.34-1.18.77-.02.03-1.59,2.63-3.48,2.43-.4-.04-.8.08-1.11.33-.31.25-.51.62-.55,1.02-.09.83.52,1.58,1.35,1.66.18.02.36.03.54.03h0Zm23.36,19.56c-.91-.02-5.47-.11-6.44.01-.72.16-1.42.43-2.06.8-.88.52-1.85.87-2.86,1.04-1.35-.31-2.64-.86-3.8-1.62-.24-.15-.52-.23-.8-.23h-6.78c-.84,0-1.52.68-1.52,1.52s.68,1.52,1.52,1.52h6.36c1.47.93,3.11,1.55,4.82,1.85.09,0,.17,0,.26,0h0c1.47-.14,2.89-.61,4.16-1.36.4-.2.95-.47,1.08-.51.5-.06,3.44-.04,6,.01h.03c.84,0,1.52-.66,1.53-1.5,0-.84-.66-1.52-1.5-1.53h0Zm-21.18-14.57c-.84,0-1.52.68-1.52,1.52s.68,1.52,1.52,1.52h5.48c.84,0,1.52-.68,1.52-1.52s-.68-1.52-1.52-1.52h-5.48Zm50.41-5.08h-6.34c-.84,0-1.52.68-1.52,1.52s.68,1.52,1.52,1.52h6.34c.84,0,1.52-.68,1.52-1.52s-.68-1.52-1.52-1.52ZM8.47,13.38h20.3,0c.84,0,1.52-.68,1.52-1.52s-.68-1.52-1.52-1.52H8.47c-.84,0-1.52.68-1.52,1.52s.68,1.52,1.52,1.52h0Zm26.64,0h3.96c.84,0,1.52-.68,1.52-1.52s-.68-1.52-1.52-1.52h-3.96c-.84,0-1.52.68-1.52,1.52s.68,1.52,1.52,1.52Zm21.86,33.37h-7.69c-.84,0-1.52.68-1.52,1.52s.68,1.52,1.52,1.52h7.69c.84,0,1.52-.68,1.52-1.52s-.68-1.52-1.52-1.52h0Z"/>
</g>
<!-- trash -->
<g viewBox="0 0 64 64" id="trash-bg">
	<path d="m48,8h-4.35c-.81-2.33-3.04-4-5.65-4h-12c-2.61,0-4.84,1.67-5.65,4h-4.35c-3.31,0-6,2.69-6,6v6h4v34c0,3.31,2.69,6,6,6h24c3.31,0,6-2.69,6-6V20h4v-6c0-3.31-2.69-6-6-6Zm-2,46c0,1.1-.9,2-2,2h-24c-1.1,0-2-.9-2-2V20h28v34Zm4-38H14v-2c0-1.1.9-2,2-2h32c1.1,0,2,.9,2,2v2Z"/>
</g>
<!-- alluvione -->
<g viewBox="0 0 64 64" id="alluvione-bg">
<path id="b" d="m19.47,24.08c-.95,1.6-2.28,3.68-4.31,6.78-.55.84-.97,1.49-1.37,2.12-3.45,5.41-5.06,8.88-5.06,11.36,0,5.77,5.3,10.93,10.79,10.93s10.33-5.02,10.33-10.93c0-2.48-1.54-5.93-4.8-11.23-.41-.66-.83-1.34-1.39-2.22-1.97-3.12-3.27-5.21-4.19-6.82h0Zm15.1,20.27c0,8.5-7.02,15.65-15.05,15.65s-15.52-7.25-15.52-15.65c0-3.71,1.86-7.72,5.8-13.9.41-.65.84-1.31,1.4-2.16,4.25-6.52,5.31-8.28,6.08-10.54.73-2.16,3.8-2.13,4.49.05.71,2.24,1.72,3.99,5.88,10.58.57.9,1,1.59,1.42,2.27,3.72,6.05,5.5,10.03,5.5,13.7h0Zm1.46-31.35c-.26.4-.46.71-.65,1.01-1.54,2.41-2.25,3.95-2.25,4.83,0,2.1,2,4.05,3.99,4.05s3.76-1.87,3.76-4.05c0-.89-.68-2.42-2.13-4.78-.19-.31-.4-.64-.66-1.06-.38-.61-.72-1.14-1.01-1.6-.3.47-.64,1-1.04,1.6h0Zm9.57,5.84c0,4.77-3.93,8.78-8.49,8.78s-8.71-4.04-8.71-8.78c0-2.11.96-4.18,2.99-7.37.2-.32.41-.64.68-1.06,1.97-3.02,2.48-3.87,2.8-4.81.73-2.16,3.8-2.13,4.49.05.3.93.78,1.77,2.71,4.82.28.44.49.78.69,1.11,1.92,3.12,2.83,5.18,2.83,7.26h0Zm3.93,15.75c-.26.4-.46.71-.65,1.01-1.54,2.41-2.25,3.95-2.25,4.83,0,2.1,2,4.05,3.99,4.05s3.76-1.87,3.76-4.05c0-.89-.68-2.42-2.13-4.78-.19-.31-.4-.64-.66-1.06-.38-.61-.72-1.14-1.01-1.6-.3.47-.64,1-1.04,1.6h0Zm9.57,5.84c0,4.77-3.93,8.78-8.49,8.78s-8.71-4.04-8.71-8.78c0-2.11.96-4.18,2.99-7.37.2-.32.41-.64.68-1.06,1.97-3.02,2.48-3.87,2.8-4.81.73-2.16,3.8-2.12,4.49.05.3.93.78,1.77,2.71,4.82.28.44.49.78.69,1.11,1.92,3.12,2.83,5.18,2.83,7.25h0Z"/>
</g>
<!-- download -->
<g viewBox="0 0 64 64" id="download-bg">
	<path d="m42.47,31.65c-.81-.82-2.14-.82-2.95,0l-5.42,5.43V6.09c0-1.15-.94-2.09-2.09-2.09h0c-.56,0-1.08.21-1.48.61s-.62.93-.62,1.49v30.98l-5.44-5.44c-.82-.81-2.14-.81-2.96,0-.81.82-.81,2.14,0,2.96l9.01,9.01h0c.05.06.1.1.14.14.26.21.57.36.91.43l.42.04h0c.55,0,1.08-.21,1.48-.61l.14-.14,8.84-8.86c.4-.4.62-.92.62-1.48s-.22-1.09-.62-1.48Z"/>
	<path d="m60,42.14v11.25c0,1.77-.69,3.42-1.93,4.67-1.25,1.25-2.9,1.94-4.66,1.94H10.59c-1.76,0-3.42-.7-4.66-1.94s-1.93-2.91-1.93-4.67v-11.25c0-1.15.94-2.1,2.1-2.1s2.1.95,2.1,2.1v11.25c0,1.33,1.08,2.41,2.4,2.41h42.81c1.32,0,2.4-1.08,2.4-2.41v-11.25c0-1.15.95-2.1,2.1-2.1.56,0,1.08.22,1.48.61.4.4.62.93.62,1.49Z"/>
</g>

</svg>
