<?xml version="1.0" encoding="utf-8"?>
<!-- Generator: Adobe Illustrator 27.3.1, SVG Export Plug-In . SVG Version: 6.00 Build 0)  -->
<svg version="1.1" id="a" xmlns="http://www.w3.org/2000/svg" xmlns:xlink="http://www.w3.org/1999/xlink" x="0px" y="0px"
	 viewBox="0 0 524 150" style="enable-background:new 0 0 524 150;" xml:space="preserve">
<style type="text/css">
	.st0{fill:#FFFFFF;}
	.st1{clip-path:url(#SVGID_00000143576258228155222490000016627679047857804207_);}
	.st2{fill:url(#SVGID_00000096017839858292008470000005176208051899592857_);}
	.st3{fill:url(#SVGID_00000161633803853003574060000005344511659916774528_);}
	.st4{fill:url(#SVGID_00000052100021821068474350000001396603356255647122_);}
	.st5{fill:url(#SVGID_00000059286923671629578560000018246734812109060226_);}
	.st6{fill:url(#SVGID_00000157997477810600244790000013277515380816804492_);}
	.st7{fill:url(#SVGID_00000005979248138962436940000016552253061406862525_);}
	.st8{fill:url(#SVGID_00000126294307288340940470000004286003133997801615_);}
</style>
<path class="st0" d="M-20.3,21.5v105.9c0,11.9-9.6,21.5-21.5,21.5h-141.8c-11.9,0-21.5-9.6-21.5-21.5V21.5C-205,9.6-195.4,0-183.5,0
	h141.8C-29.9,0-20.3,9.6-20.3,21.5z"/>
<g>
	<defs>
		<path id="SVGID_1_" d="M-183.5,3.7h141.8C-32,3.7-24,11.7-24,21.5v105.9c0,9.8-7.9,17.7-17.7,17.7h-141.8
			c-9.8,0-17.7-7.9-17.7-17.7V21.5C-201.3,11.7-193.3,3.7-183.5,3.7z"/>
	</defs>
	<clipPath id="SVGID_00000078019429343970918240000012208047586888868027_">
		<use xlink:href="#SVGID_1_"  style="overflow:visible;"/>
	</clipPath>
	<g style="clip-path:url(#SVGID_00000078019429343970918240000012208047586888868027_);">
		
			<linearGradient id="SVGID_00000040554851409829595270000014483223430106840723_" gradientUnits="userSpaceOnUse" x1="-112.6397" y1="6.8583" x2="-112.6397" y2="148.2483" gradientTransform="matrix(1 0 0 -1 -1.074827e-02 151.9845)">
			<stop  offset="0.2" style="stop-color:#86D1F5"/>
			<stop  offset="0.55" style="stop-color:#009FE3"/>
			<stop  offset="0.61" style="stop-color:#0495DB"/>
			<stop  offset="0.73" style="stop-color:#0E7AC5"/>
			<stop  offset="0.88" style="stop-color:#204FA3"/>
			<stop  offset="1" style="stop-color:#312783"/>
		</linearGradient>
		
			<rect x="-201.3" y="3.7" style="fill:url(#SVGID_00000040554851409829595270000014483223430106840723_);" width="177.2" height="141.4"/>
		
			<linearGradient id="SVGID_00000137127224706083153620000015450841242275779481_" gradientUnits="userSpaceOnUse" x1="-244.3447" y1="33.1133" x2="-94.2447" y2="33.1133" gradientTransform="matrix(1 0 0 -1 -1.074827e-02 151.9845)">
			<stop  offset="0.15" style="stop-color:#EAE985"/>
			<stop  offset="0.62" style="stop-color:#A5BB1C"/>
			<stop  offset="0.7" style="stop-color:#9CB11D"/>
			<stop  offset="0.84" style="stop-color:#869623"/>
			<stop  offset="1" style="stop-color:#656E2B"/>
		</linearGradient>
		<path style="fill:url(#SVGID_00000137127224706083153620000015450841242275779481_);" d="M-244.3,79.3v79.4h150.1
			c0-44-35.7-79.7-79.7-79.7h-70.4V79.3L-244.3,79.3z"/>
		<path class="st0" d="M-92.4,160.6h-153.9V77.1h72.3c45,0,81.6,36.6,81.6,81.6V160.6L-92.4,160.6z M-242.5,156.8h146.3
			c-1-42-35.5-75.9-77.8-75.9h-68.5C-242.5,80.9-242.5,156.8-242.5,156.8z"/>
		
			<linearGradient id="SVGID_00000161593908972084941570000004673075524917313708_" gradientUnits="userSpaceOnUse" x1="-244.3447" y1="23.8133" x2="-112.8148" y2="23.8133" gradientTransform="matrix(1 0 0 -1 -1.074827e-02 151.9845)">
			<stop  offset="0.2" style="stop-color:#B6D382"/>
			<stop  offset="0.62" style="stop-color:#76B82B"/>
			<stop  offset="0.68" style="stop-color:#6CB12B"/>
			<stop  offset="0.78" style="stop-color:#519E2D"/>
			<stop  offset="0.9" style="stop-color:#268030"/>
			<stop  offset="1" style="stop-color:#006633"/>
		</linearGradient>
		<path style="fill:url(#SVGID_00000161593908972084941570000004673075524917313708_);" d="M-112.8,158.7
			c0-33.8-27.4-61.1-61.1-61.1h-70.4v61.1H-112.8z"/>
		<path class="st0" d="M-110.9,160.6h-135.3V95.7h72.3c34.7,0,63,28.3,63,63V160.6L-110.9,160.6z M-242.5,156.8h127.7
			c-1-31.8-27.2-57.4-59.2-57.4h-68.5V156.8z"/>
		
			<linearGradient id="SVGID_00000041255133306117173900000017728183188617673632_" gradientUnits="userSpaceOnUse" x1="-131.2647" y1="33.1133" x2="18.8353" y2="33.1133" gradientTransform="matrix(1 0 0 -1 -1.074827e-02 151.9845)">
			<stop  offset="6.000000e-02" style="stop-color:#CD680E"/>
			<stop  offset="0.38" style="stop-color:#F9B100"/>
			<stop  offset="0.5" style="stop-color:#FAB709"/>
			<stop  offset="0.71" style="stop-color:#FDC924"/>
			<stop  offset="0.8" style="stop-color:#FFD332"/>
		</linearGradient>
		<path style="fill:url(#SVGID_00000041255133306117173900000017728183188617673632_);" d="M18.8,79.3v79.4h-150.1
			c0-44,35.7-79.7,79.7-79.7h70.4L18.8,79.3L18.8,79.3z"/>
		<path class="st0" d="M20.7,160.6h-153.9v-1.9c0-45,36.6-81.6,81.6-81.6h72.3L20.7,160.6L20.7,160.6z M-129.4,156.8H16.9V80.9
			h-68.5C-93.8,80.9-128.4,114.8-129.4,156.8L-129.4,156.8z"/>
		<path class="st0" d="M-161.1,60.5c-2.6,0-5.2-0.4-7.7-1.3c-2.5-0.9-4.8-2.3-6.9-4.1l4.5-5.4c1.6,1.3,3.2,2.3,4.8,3
			c1.6,0.7,3.5,1.1,5.4,1.1c1.6,0,2.8-0.3,3.7-0.9c0.9-0.6,1.3-1.4,1.3-2.4v-0.1c0-0.5-0.1-0.9-0.3-1.3c-0.2-0.4-0.5-0.7-1-1.1
			c-0.5-0.3-1.2-0.7-2.1-1c-0.9-0.3-2.1-0.7-3.5-1c-1.7-0.4-3.3-0.9-4.7-1.4c-1.4-0.5-2.6-1.2-3.6-1.9c-1-0.8-1.7-1.7-2.3-2.9
			c-0.5-1.1-0.8-2.6-0.8-4.3v-0.1c0-1.6,0.3-3,0.9-4.2c0.6-1.3,1.4-2.3,2.5-3.3c1.1-0.9,2.3-1.6,3.8-2.1c1.5-0.5,3.1-0.7,4.9-0.7
			c2.5,0,4.8,0.4,7,1.1c2.1,0.7,4.1,1.8,5.8,3.2l-3.9,5.7c-1.5-1-3-1.9-4.5-2.5c-1.5-0.6-2.9-0.9-4.4-0.9c-1.5,0-2.6,0.3-3.3,0.9
			s-1.1,1.3-1.1,2.1v0.1c0,0.6,0.1,1,0.3,1.4s0.6,0.8,1.2,1.1c0.6,0.3,1.3,0.6,2.3,0.9c1,0.3,2.2,0.6,3.7,1c1.7,0.5,3.3,1,4.7,1.5
			c1.4,0.6,2.5,1.3,3.4,2.1c0.9,0.8,1.6,1.7,2.1,2.8c0.5,1.1,0.7,2.4,0.7,3.9v0.1c0,1.7-0.3,3.2-0.9,4.5s-1.5,2.4-2.6,3.3
			s-2.4,1.6-4,2.1C-157.5,60.3-159.2,60.5-161.1,60.5L-161.1,60.5z"/>
		<path class="st0" d="M-140.3,25.6h7.6V60h-7.6V25.6z"/>
		<path class="st0" d="M-111.1,25.3h7L-89.4,60h-7.9l-3.1-7.7H-115l-3.1,7.7h-7.7L-111.1,25.3L-111.1,25.3z M-103.2,45.6l-4.6-11.2
			l-4.6,11.2H-103.2z"/>
		<path class="st0" d="M-82.9,25.6h7l16.1,21.2V25.6h7.5V60h-6.4l-16.7-21.9V60h-7.5C-82.9,60-82.9,25.6-82.9,25.6z"/>
		
			<linearGradient id="SVGID_00000101066368814095998190000016105324288553243793_" gradientUnits="userSpaceOnUse" x1="-112.6847" y1="23.8133" x2="18.8353" y2="23.8133" gradientTransform="matrix(1 0 0 -1 -1.074827e-02 151.9845)">
			<stop  offset="6.000000e-02" style="stop-color:#AB4420"/>
			<stop  offset="0.38" style="stop-color:#EF7D00"/>
			<stop  offset="0.46" style="stop-color:#F08605"/>
			<stop  offset="0.6" style="stop-color:#F5A115"/>
			<stop  offset="0.78" style="stop-color:#FDCC2E"/>
			<stop  offset="0.8" style="stop-color:#FFD332"/>
		</linearGradient>
		<path style="fill:url(#SVGID_00000101066368814095998190000016105324288553243793_);" d="M-112.7,158.7
			c0-33.8,27.4-61.1,61.1-61.1h70.4v61.1H-112.7z"/>
		<path class="st0" d="M20.7,160.6h-135.3v-1.9c0-34.7,28.3-63,63-63h72.3L20.7,160.6L20.7,160.6z M-110.8,156.8H16.9V99.5h-68.5
			C-83.6,99.5-109.8,125-110.8,156.8z"/>
		
			<linearGradient id="SVGID_00000093150394433732161960000014389084050867957908_" gradientUnits="userSpaceOnUse" x1="-94.1748" y1="14.5583" x2="18.8352" y2="14.5583" gradientTransform="matrix(1 0 0 -1 -1.074827e-02 151.9845)">
			<stop  offset="6.000000e-02" style="stop-color:#6F150C"/>
			<stop  offset="0.38" style="stop-color:#E84E0F"/>
			<stop  offset="0.51" style="stop-color:#E9570B"/>
			<stop  offset="0.73" style="stop-color:#ED7203"/>
			<stop  offset="0.8" style="stop-color:#EF7D00"/>
		</linearGradient>
		<path style="fill:url(#SVGID_00000093150394433732161960000014389084050867957908_);" d="M-94.2,158.7c0-23.5,19.1-42.6,42.6-42.6
			l70.4,0.1v42.5C18.8,158.7-94.2,158.7-94.2,158.7z"/>
		<path class="st0" d="M20.7,160.6H-96.1v-1.9c0-24.5,20-44.5,44.5-44.5l72.3,0.1V160.6L20.7,160.6z M-92.3,156.8H16.9v-38.8
			l-68.5-0.1C-73.4,118-91.3,135.3-92.3,156.8L-92.3,156.8z"/>
		
			<linearGradient id="SVGID_00000115478651879801508400000009876708596000051626_" gradientUnits="userSpaceOnUse" x1="-244.3347" y1="14.5583" x2="-131.3247" y2="14.5583" gradientTransform="matrix(1 0 0 -1 -1.074827e-02 151.9845)">
			<stop  offset="0.2" style="stop-color:#5D9258"/>
			<stop  offset="0.62" style="stop-color:#007B3D"/>
			<stop  offset="0.7" style="stop-color:#027138"/>
			<stop  offset="0.83" style="stop-color:#08562A"/>
			<stop  offset="1" style="stop-color:#122D16"/>
		</linearGradient>
		<path style="fill:url(#SVGID_00000115478651879801508400000009876708596000051626_);" d="M-131.3,158.7
			c0-23.5-19.1-42.6-42.6-42.6l-70.4,0.1v42.5H-131.3z"/>
		<path class="st0" d="M-129.5,160.6h-116.8v-46.3l72.3-0.1c24.5,0,44.5,20,44.5,44.5L-129.5,160.6L-129.5,160.6z M-242.5,156.8
			h109.2c-1-21.6-18.9-38.8-40.7-38.8l-68.5,0.1C-242.5,118.1-242.5,156.8-242.5,156.8z"/>
	</g>
</g>
<path class="st0" d="M37.2,144.8l10.4-23.3c0.6-1.2,1.6-2,3-2h0.2c1.4,0,2.4,0.8,2.9,2l10.4,23.3c0.2,0.4,0.3,0.7,0.3,1
	c0,1.3-1,2.4-2.3,2.4c-1.2,0-2-0.7-2.4-1.7l-2.3-5.2H43.8l-2.4,5.4c-0.4,1-1.2,1.6-2.3,1.6c-1.3,0-2.3-1-2.3-2.3
	C36.9,145.5,37,145.2,37.2,144.8L37.2,144.8z M55.6,136.8l-4.9-11.3l-4.9,11.3H55.6L55.6,136.8z"/>
<path class="st0" d="M67.4,134L67.4,134c0-7.9,6-14.6,14.5-14.6c4.2,0,7,1,9.6,2.8c0.5,0.4,1,1,1,2c0,1.3-1.1,2.4-2.4,2.4
	c-0.6,0-1.1-0.3-1.5-0.6c-1.8-1.3-3.8-2.2-6.8-2.2c-5.2,0-9.1,4.5-9.1,9.9v0.1c0,5.8,3.8,10,9.5,10c2.6,0,5.1-0.8,6.8-2.1v-5.3h-5.5
	c-1.2,0-2.2-0.9-2.2-2.1s1-2.2,2.2-2.2h7.8c1.4,0,2.5,1.1,2.5,2.5v7.5c0,1.4-0.6,2.4-1.7,3.1c-2.4,1.6-5.8,3-10,3
	C73.2,148.5,67.4,142.2,67.4,134L67.4,134z"/>
<path class="st0" d="M100.2,122.4c0-1.4,1.1-2.5,2.5-2.5h10c3.5,0,6.3,1,8.1,2.8c1.5,1.5,2.3,3.6,2.3,6.1v0.1c0,4.5-2.6,7.2-6.4,8.4
	l5.4,6.8c0.5,0.6,0.8,1.1,0.8,1.9c0,1.4-1.2,2.3-2.4,2.3c-1.1,0-1.8-0.5-2.4-1.3l-6.8-8.7h-6.2v7.5c0,1.4-1.1,2.4-2.4,2.4
	c-1.4,0-2.5-1.1-2.5-2.4L100.2,122.4L100.2,122.4z M112.3,133.8c3.5,0,5.8-1.8,5.8-4.7v-0.1c0-3-2.2-4.6-5.8-4.6h-7.2v9.4
	L112.3,133.8L112.3,133.8z"/>
<path class="st0" d="M129.5,122.2c0-1.4,1.1-2.4,2.5-2.4c1.4,0,2.4,1.1,2.4,2.4v23.6c0,1.4-1.1,2.4-2.4,2.4s-2.5-1.1-2.5-2.4V122.2z
	"/>
<path class="st0" d="M140.8,134L140.8,134c0-8.1,6-14.6,14.5-14.6c4.3,0,7.2,1.3,9.6,3.2c0.5,0.4,1,1.1,1,2c0,1.4-1.1,2.4-2.4,2.4
	c-0.7,0-1.2-0.2-1.5-0.5c-1.9-1.6-4-2.5-6.7-2.5c-5.3,0-9.3,4.4-9.3,9.9v0.1c0,5.5,3.9,9.9,9.3,9.9c3,0,5-1,7-2.7
	c0.4-0.3,0.9-0.6,1.5-0.6c1.2,0,2.3,1,2.3,2.3c0,0.8-0.4,1.4-0.8,1.8c-2.6,2.3-5.7,3.8-10.2,3.8C146.9,148.5,140.8,142.1,140.8,134
	L140.8,134z"/>
<path class="st0" d="M169.6,134L169.6,134c0-8,6.1-14.6,14.7-14.6c8.6,0,14.6,6.5,14.6,14.4v0.1c0,7.9-6.1,14.5-14.7,14.5
	S169.6,141.9,169.6,134z M193.8,134L193.8,134c0-5.5-4-10.1-9.5-10.1s-9.5,4.4-9.5,9.9v0.1c0,5.4,4,9.9,9.5,9.9
	C189.9,143.9,193.8,139.5,193.8,134z"/>
<path class="st0" d="M205,122.2c0-1.4,1.1-2.4,2.5-2.4c1.4,0,2.4,1.1,2.4,2.4v21.3h12.7c1.2,0,2.2,1,2.2,2.2s-1,2.2-2.2,2.2h-15.2
	c-1.4,0-2.5-1.1-2.5-2.5L205,122.2L205,122.2z"/>
<path class="st0" d="M227.1,134L227.1,134c0-8,6.1-14.6,14.7-14.6s14.6,6.5,14.6,14.4v0.1c0,7.9-6.1,14.5-14.7,14.5
	S227.1,141.9,227.1,134z M251.3,134L251.3,134c0-5.5-4-10.1-9.5-10.1s-9.5,4.4-9.5,9.9v0.1c0,5.4,4,9.9,9.5,9.9
	S251.3,139.5,251.3,134z"/>
<path class="st0" d="M274.6,122.2c0-1.4,1.1-2.5,2.5-2.5h0.5c1.2,0,1.9,0.6,2.6,1.4l14,18.2v-17.2c0-1.3,1.1-2.4,2.4-2.4
	s2.4,1.1,2.4,2.4v23.6c0,1.4-1,2.4-2.4,2.4h-0.2c-1.2,0-1.9-0.6-2.6-1.5L279.4,128v17.8c0,1.3-1.1,2.4-2.4,2.4s-2.4-1.1-2.4-2.4
	L274.6,122.2L274.6,122.2z"/>
<path class="st0" d="M304.7,144.8l10.4-23.3c0.6-1.2,1.6-2,3-2h0.2c1.4,0,2.4,0.8,2.9,2l10.4,23.3c0.2,0.4,0.3,0.7,0.3,1
	c0,1.3-1,2.4-2.3,2.4c-1.2,0-2-0.7-2.4-1.7l-2.3-5.2h-13.6l-2.4,5.4c-0.4,1-1.2,1.6-2.3,1.6c-1.3,0-2.3-1-2.3-2.3
	C304.4,145.5,304.5,145.2,304.7,144.8L304.7,144.8z M323.1,136.8l-4.9-11.3l-4.9,11.3H323.1L323.1,136.8z"/>
<path class="st0" d="M336.1,145.8v-0.1c0-0.8,0.3-1.6,0.9-2.3l15.8-19.1h-14.1c-1.2,0-2.2-1-2.2-2.2s1-2.2,2.2-2.2h18.4
	c1.2,0,2.2,1,2.2,2.2v0.1c0,0.8-0.3,1.6-0.9,2.3l-15.8,19.1h14.6c1.2,0,2.2,1,2.2,2.2s-1,2.2-2.2,2.2h-19
	C337.1,148,336.1,147,336.1,145.8L336.1,145.8z"/>
<path class="st0" d="M365.7,122.2c0-1.4,1.1-2.4,2.5-2.4s2.4,1.1,2.4,2.4v23.6c0,1.4-1.1,2.4-2.4,2.4s-2.5-1.1-2.5-2.4V122.2z"/>
<path class="st0" d="M377,134L377,134c0-8,6.1-14.6,14.7-14.6c8.6,0,14.6,6.5,14.6,14.4v0.1c0,7.9-6.1,14.5-14.7,14.5
	C383,148.5,377,141.9,377,134z M401.2,134L401.2,134c0-5.5-4-10.1-9.5-10.1c-5.6,0-9.5,4.4-9.5,9.9v0.1c0,5.4,4,9.9,9.5,9.9
	C397.3,143.9,401.2,139.5,401.2,134z"/>
<path class="st0" d="M412.4,122.2c0-1.4,1.1-2.5,2.5-2.5h0.5c1.2,0,1.9,0.6,2.6,1.4l14,18.2v-17.2c0-1.3,1.1-2.4,2.4-2.4
	s2.4,1.1,2.4,2.4v23.6c0,1.4-1,2.4-2.4,2.4h-0.2c-1.2,0-1.9-0.6-2.6-1.5L417.3,128v17.8c0,1.3-1.1,2.4-2.4,2.4
	c-1.3,0-2.4-1.1-2.4-2.4C412.4,145.8,412.4,122.2,412.4,122.2z"/>
<path class="st0" d="M442.5,144.8l10.4-23.3c0.6-1.2,1.6-2,3-2h0.2c1.4,0,2.4,0.8,2.9,2l10.4,23.3c0.2,0.4,0.3,0.7,0.3,1
	c0,1.3-1,2.4-2.3,2.4c-1.2,0-2-0.7-2.4-1.7l-2.3-5.2h-13.6l-2.4,5.4c-0.4,1-1.2,1.6-2.3,1.6c-1.3,0-2.3-1-2.3-2.3
	C442.2,145.5,442.3,145.2,442.5,144.8L442.5,144.8z M460.9,136.8l-4.9-11.3l-4.9,11.3H460.9L460.9,136.8z"/>
<path class="st0" d="M475.2,122.2c0-1.4,1.1-2.4,2.5-2.4c1.4,0,2.4,1.1,2.4,2.4v21.3h12.7c1.2,0,2.2,1,2.2,2.2s-1,2.2-2.2,2.2h-15.2
	c-1.4,0-2.5-1.1-2.5-2.5L475.2,122.2L475.2,122.2z"/>
<path class="st0" d="M500.1,145.5v-23.1c0-1.4,1.1-2.5,2.5-2.5h16.3c1.2,0,2.2,1,2.2,2.2s-1,2.2-2.2,2.2H505v7.3h12.1
	c1.2,0,2.2,1,2.2,2.2s-1,2.2-2.2,2.2H505v7.5h14.1c1.2,0,2.2,1,2.2,2.2s-1,2.2-2.2,2.2h-16.5C501.2,148,500.1,146.9,500.1,145.5
	L500.1,145.5z"/>
<path class="st0" d="M37.8,105.6c-0.6-0.4-1-1.1-1-1.9c0-1.3,1-2.3,2.3-2.3c0.7,0,1.1,0.2,1.4,0.4c2.3,1.8,4.8,2.9,7.9,2.9
	c3,0,5-1.4,5-3.5v-0.1c0-2-1.1-3.1-6.3-4.3c-6-1.4-9.3-3.2-9.3-8.4v-0.1c0-4.8,4-8.1,9.6-8.1c3.5,0,6.4,0.9,8.9,2.6
	c0.6,0.3,1.1,1,1.1,2c0,1.3-1,2.3-2.3,2.3c-0.5,0-0.9-0.1-1.3-0.4c-2.2-1.4-4.2-2.1-6.5-2.1c-2.9,0-4.6,1.5-4.6,3.3V88
	c0,2.2,1.3,3.1,6.7,4.4c5.9,1.4,9,3.6,9,8.2v0.1c0,5.2-4.1,8.4-10,8.4C44.6,109.1,41,107.9,37.8,105.6L37.8,105.6z"/>
<path class="st0" d="M64.5,82.9c0-1.4,1.1-2.4,2.5-2.4c1.4,0,2.4,1.1,2.4,2.4v23.6c0,1.4-1.1,2.4-2.4,2.4c-1.4,0-2.5-1.1-2.5-2.4
	V82.9z"/>
<path class="st0" d="M76.2,105.6c-0.6-0.4-1-1.1-1-1.9c0-1.3,1-2.3,2.3-2.3c0.7,0,1.1,0.2,1.4,0.4c2.3,1.8,4.8,2.9,7.9,2.9
	c3,0,5-1.4,5-3.5v-0.1c0-2-1.1-3.1-6.3-4.3c-6-1.4-9.3-3.2-9.3-8.4v-0.1c0-4.8,4-8.1,9.6-8.1c3.5,0,6.4,0.9,8.9,2.6
	c0.6,0.3,1.1,1,1.1,2c0,1.3-1,2.3-2.3,2.3c-0.5,0-0.9-0.1-1.3-0.4c-2.2-1.4-4.2-2.1-6.5-2.1c-2.9,0-4.6,1.5-4.6,3.3V88
	c0,2.2,1.3,3.1,6.7,4.4c5.9,1.4,9,3.6,9,8.2v0.1c0,5.2-4.1,8.4-10,8.4C82.9,109.1,79.3,107.9,76.2,105.6L76.2,105.6z"/>
<path class="st0" d="M108.9,85.2h-6.8c-1.3,0-2.3-1-2.3-2.3s1-2.3,2.3-2.3h18.6c1.2,0,2.2,1,2.2,2.3s-1,2.3-2.2,2.3h-6.9v21.3
	c0,1.4-1.1,2.4-2.5,2.4c-1.4,0-2.5-1.1-2.5-2.4L108.9,85.2L108.9,85.2z"/>
<path class="st0" d="M128,106.2V83.1c0-1.4,1.1-2.5,2.5-2.5h16.3c1.2,0,2.2,1,2.2,2.2s-1,2.2-2.2,2.2h-13.9v7.3H145
	c1.2,0,2.2,1,2.2,2.2c0,1.2-1,2.2-2.2,2.2h-12.1v7.5H147c1.2,0,2.2,1,2.2,2.2s-1,2.2-2.2,2.2h-16.5C129,108.7,128,107.6,128,106.2
	L128,106.2z"/>
<path class="st0" d="M154.8,82.9c0-1.4,1.1-2.5,2.5-2.5h0.5c1.1,0,1.8,0.6,2.3,1.3l8.5,13.3l8.5-13.4c0.5-0.8,1.2-1.3,2.2-1.3h0.5
	c1.4,0,2.5,1.1,2.5,2.5v23.5c0,1.4-1.1,2.4-2.5,2.4c-1.3,0-2.4-1.1-2.4-2.4V89.6l-6.9,10.3c-0.5,0.8-1.2,1.3-2.1,1.3
	c-0.9,0-1.5-0.5-2-1.3l-6.8-10.2v16.8c0,1.4-1.1,2.4-2.4,2.4c-1.4,0-2.4-1-2.4-2.4L154.8,82.9L154.8,82.9z"/>
<path class="st0" d="M188,105.5l10.4-23.3c0.6-1.2,1.6-2,3-2h0.2c1.4,0,2.4,0.8,2.9,2l10.4,23.3c0.2,0.4,0.3,0.7,0.3,1
	c0,1.3-1,2.4-2.3,2.4c-1.2,0-2-0.7-2.4-1.7l-2.3-5.3h-13.6l-2.4,5.4c-0.4,1-1.2,1.6-2.3,1.6c-1.3,0-2.3-1-2.3-2.3
	C187.7,106.2,187.8,105.9,188,105.5L188,105.5z M206.4,97.5l-4.9-11.3l-4.9,11.3H206.4L206.4,97.5z"/>
<path class="st0" d="M232.9,82.9c0-1.4,1.1-2.4,2.5-2.4c1.4,0,2.4,1.1,2.4,2.4v23.6c0,1.4-1.1,2.4-2.4,2.4c-1.4,0-2.5-1.1-2.5-2.4
	V82.9z"/>
<path class="st0" d="M245.3,82.9c0-1.4,1.1-2.5,2.5-2.5h0.5c1.2,0,1.9,0.6,2.6,1.4l14,18.2V82.8c0-1.3,1.1-2.4,2.4-2.4
	s2.4,1.1,2.4,2.4v23.6c0,1.4-1,2.4-2.4,2.4h-0.2c-1.2,0-1.9-0.6-2.6-1.5l-14.4-18.7v17.8c0,1.3-1.1,2.4-2.4,2.4s-2.4-1.1-2.4-2.4
	L245.3,82.9L245.3,82.9z"/>
<path class="st0" d="M277,83.1c0-1.4,1.1-2.5,2.5-2.5h16.4c1.2,0,2.2,1,2.2,2.2s-1,2.2-2.2,2.2h-13.9v7.7H294c1.2,0,2.2,1,2.2,2.2
	s-1,2.2-2.2,2.2h-12.1v9.2c0,1.4-1.1,2.4-2.4,2.4s-2.5-1.1-2.5-2.4L277,83.1L277,83.1z"/>
<path class="st0" d="M301.8,94.7L301.8,94.7c0-8,6.1-14.6,14.7-14.6s14.6,6.5,14.6,14.4v0.1c0,7.9-6.1,14.5-14.7,14.5
	S301.8,102.6,301.8,94.7L301.8,94.7z M326,94.7L326,94.7c0-5.5-4-10.1-9.5-10.1c-5.6,0-9.5,4.4-9.5,9.9v0.1c0,5.4,4,9.9,9.5,9.9
	C322.1,104.6,326,100.2,326,94.7z"/>
<path class="st0" d="M337.1,83.1c0-1.4,1.1-2.5,2.5-2.5h10c3.5,0,6.3,1,8.1,2.8c1.5,1.5,2.3,3.6,2.3,6.1v0.1c0,4.5-2.6,7.2-6.4,8.4
	l5.4,6.8c0.5,0.6,0.8,1.1,0.8,1.9c0,1.4-1.2,2.3-2.4,2.3c-1.1,0-1.8-0.5-2.4-1.3l-6.8-8.7H342v7.5c0,1.4-1.1,2.4-2.4,2.4
	c-1.4,0-2.5-1.1-2.5-2.4L337.1,83.1L337.1,83.1z M349.3,94.5c3.5,0,5.8-1.8,5.8-4.7v-0.1c0-3-2.2-4.6-5.8-4.6H342v9.4L349.3,94.5
	L349.3,94.5z"/>
<path class="st0" d="M366.1,82.9c0-1.4,1.1-2.5,2.5-2.5h0.5c1.1,0,1.8,0.6,2.3,1.3l8.5,13.3l8.5-13.4c0.5-0.8,1.2-1.3,2.2-1.3h0.5
	c1.4,0,2.5,1.1,2.5,2.5v23.5c0,1.4-1.1,2.4-2.5,2.4c-1.3,0-2.4-1.1-2.4-2.4V89.6l-6.9,10.3c-0.5,0.8-1.2,1.3-2.1,1.3
	c-0.9,0-1.5-0.5-2-1.3l-6.8-10.2v16.8c0,1.4-1.1,2.4-2.4,2.4s-2.4-1-2.4-2.4L366.1,82.9L366.1,82.9z"/>
<path class="st0" d="M399.3,105.5l10.4-23.3c0.6-1.2,1.6-2,3-2h0.2c1.4,0,2.4,0.8,2.9,2l10.4,23.3c0.2,0.4,0.3,0.7,0.3,1
	c0,1.3-1,2.4-2.3,2.4c-1.2,0-2-0.7-2.4-1.7l-2.3-5.3h-13.6l-2.4,5.4c-0.4,1-1.2,1.6-2.3,1.6c-1.3,0-2.3-1-2.3-2.3
	C398.9,106.2,399.1,105.9,399.3,105.5L399.3,105.5z M417.7,97.5l-4.9-11.3l-4.9,11.3H417.7L417.7,97.5z"/>
<path class="st0" d="M435.6,85.2h-6.8c-1.3,0-2.3-1-2.3-2.3s1-2.3,2.3-2.3h18.6c1.2,0,2.2,1,2.2,2.3s-1,2.3-2.2,2.3h-6.9v21.3
	c0,1.4-1.1,2.4-2.5,2.4s-2.5-1.1-2.5-2.4L435.6,85.2L435.6,85.2z"/>
<path class="st0" d="M454.9,82.9c0-1.4,1.1-2.4,2.5-2.4s2.4,1.1,2.4,2.4v23.6c0,1.4-1.1,2.4-2.4,2.4s-2.5-1.1-2.5-2.4V82.9z"/>
<path class="st0" d="M475.5,107.1L465.7,84c-0.2-0.4-0.3-0.7-0.3-1.2c0-1.3,1.1-2.4,2.5-2.4c1.3,0,2.1,0.7,2.5,1.8l8.1,20.3
	l8.2-20.4c0.3-0.8,1.2-1.6,2.4-1.6c1.4,0,2.4,1,2.4,2.4c0,0.4-0.1,0.8-0.2,1l-9.9,23.3c-0.5,1.2-1.4,2-2.8,2h-0.3
	C476.9,109.1,476,108.3,475.5,107.1L475.5,107.1z"/>
<path class="st0" d="M494.3,94.7L494.3,94.7c0-8,6.1-14.6,14.7-14.6c8.6,0,14.6,6.5,14.6,14.4v0.1c0,7.9-6.1,14.5-14.7,14.5
	C500.3,109.2,494.3,102.6,494.3,94.7z M518.5,94.7L518.5,94.7c0-5.5-4-10.1-9.5-10.1s-9.5,4.4-9.5,9.9v0.1c0,5.4,4,9.9,9.5,9.9
	S518.5,100.2,518.5,94.7z"/>
</svg>
