<?xml version="1.0" encoding="UTF-8"?><svg id="a" xmlns="http://www.w3.org/2000/svg" viewBox="0 0 425 420"><g id="b"><path d="m19.36,413.76l8.33-18.58c.45-.99,1.25-1.6,2.37-1.6h.19c1.12,0,1.89.61,2.34,1.6l8.33,18.58c.16.29.22.58.22.83,0,1.06-.8,1.89-1.86,1.89-.93,0-1.57-.54-1.92-1.38l-1.83-4.2h-10.89l-1.89,4.32c-.32.8-.99,1.25-1.83,1.25-1.03,0-1.83-.8-1.83-1.83,0-.29.1-.58.26-.9Zm14.67-6.34l-3.94-9.07-3.94,9.07h7.88Z" style="fill:#fff;"/><path d="m43.49,405.17v-.06c0-6.28,4.81-11.6,11.56-11.6,3.36,0,5.61.8,7.66,2.27.38.29.8.83.8,1.6,0,1.06-.87,1.95-1.95,1.95-.51,0-.9-.22-1.22-.45-1.44-1.06-3.01-1.76-5.45-1.76-4.13,0-7.27,3.62-7.27,7.91v.06c0,4.61,3.04,8.01,7.62,8.01,2.11,0,4.04-.67,5.41-1.7v-4.2h-4.42c-.96,0-1.76-.74-1.76-1.7s.8-1.73,1.76-1.73h6.25c1.12,0,1.99.87,1.99,1.99v5.99c0,1.12-.45,1.92-1.38,2.5-1.92,1.28-4.61,2.44-7.98,2.44-7.02,0-11.63-5-11.63-11.53Z" style="fill:#fff;"/><path d="m69.65,395.88c0-1.12.87-1.99,1.99-1.99h8.01c2.82,0,5.03.83,6.47,2.24,1.19,1.22,1.86,2.88,1.86,4.84v.06c0,3.59-2.08,5.77-5.09,6.7l4.29,5.42c.38.48.64.9.64,1.51,0,1.09-.93,1.83-1.89,1.83-.9,0-1.47-.42-1.92-1.03l-5.45-6.95h-4.97v6.02c0,1.09-.87,1.95-1.95,1.95s-1.99-.87-1.99-1.95v-18.64Zm9.71,9.13c2.82,0,4.61-1.47,4.61-3.75v-.06c0-2.4-1.73-3.72-4.65-3.72h-5.73v7.53h5.77Z" style="fill:#fff;"/><path d="m93.08,395.69c0-1.09.87-1.95,1.99-1.95s1.95.87,1.95,1.95v18.84c0,1.09-.87,1.95-1.95,1.95s-1.99-.87-1.99-1.95v-18.84Z" style="fill:#fff;"/><path d="m102.08,405.17v-.06c0-6.38,4.77-11.6,11.56-11.6,3.46,0,5.74,1.03,7.69,2.53.42.32.77.87.77,1.57,0,1.09-.87,1.92-1.95,1.92-.54,0-.93-.19-1.19-.38-1.54-1.25-3.2-2.02-5.35-2.02-4.26,0-7.4,3.52-7.4,7.91v.06c0,4.39,3.11,7.94,7.4,7.94,2.37,0,3.97-.77,5.61-2.15.29-.26.7-.45,1.19-.45.99,0,1.86.83,1.86,1.83,0,.61-.29,1.09-.64,1.41-2.11,1.86-4.52,3.01-8.14,3.01-6.54,0-11.4-5.09-11.4-11.53Z" style="fill:#fff;"/><path d="m125.13,405.17v-.06c0-6.31,4.87-11.6,11.76-11.6s11.69,5.22,11.69,11.53v.06c0,6.31-4.87,11.6-11.76,11.6s-11.69-5.22-11.69-11.53Zm19.32,0v-.06c0-4.36-3.17-7.98-7.63-7.98s-7.56,3.56-7.56,7.91v.06c0,4.36,3.17,7.94,7.62,7.94s7.56-3.52,7.56-7.88Z" style="fill:#fff;"/><path d="m153.39,395.69c0-1.09.87-1.95,1.99-1.95s1.95.87,1.95,1.95v17.04h10.16c.99,0,1.79.8,1.79,1.79s-.8,1.79-1.79,1.79h-12.11c-1.12,0-1.99-.87-1.99-1.99v-18.64Z" style="fill:#fff;"/><path d="m171,405.17v-.06c0-6.31,4.87-11.6,11.76-11.6s11.69,5.22,11.69,11.53v.06c0,6.31-4.87,11.6-11.76,11.6s-11.69-5.22-11.69-11.53Zm19.32,0v-.06c0-4.36-3.17-7.98-7.62-7.98s-7.56,3.56-7.56,7.91v.06c0,4.36,3.17,7.94,7.62,7.94s7.56-3.52,7.56-7.88Z" style="fill:#fff;"/><path d="m208.94,395.76c0-1.09.87-1.99,1.99-1.99h.42c.96,0,1.51.48,2.05,1.15l11.21,14.51v-13.77c0-1.06.87-1.92,1.92-1.92s1.95.87,1.95,1.92v18.84c0,1.09-.83,1.95-1.92,1.95h-.16c-.93,0-1.51-.48-2.05-1.19l-11.53-14.93v14.22c0,1.06-.87,1.92-1.92,1.92s-1.95-.87-1.95-1.92v-18.8Z" style="fill:#fff;"/><path d="m233.01,413.76l8.33-18.58c.45-.99,1.25-1.6,2.37-1.6h.19c1.12,0,1.89.61,2.34,1.6l8.33,18.58c.16.29.22.58.22.83,0,1.06-.8,1.89-1.86,1.89-.93,0-1.57-.54-1.92-1.38l-1.83-4.2h-10.89l-1.89,4.32c-.32.8-.99,1.25-1.83,1.25-1.03,0-1.83-.8-1.83-1.83,0-.29.1-.58.26-.9Zm14.67-6.34l-3.94-9.07-3.94,9.07h7.88Z" style="fill:#fff;"/><path d="m258.04,414.59v-.1c0-.67.26-1.28.74-1.83l12.62-15.28h-11.24c-.93,0-1.73-.77-1.73-1.73s.8-1.76,1.73-1.76h14.74c.96,0,1.76.8,1.76,1.73v.1c0,.67-.26,1.25-.7,1.83l-12.65,15.28h11.66c.96,0,1.76.8,1.76,1.76s-.8,1.73-1.76,1.73h-15.15c-.93,0-1.76-.8-1.76-1.73Z" style="fill:#fff;"/><path d="m281.74,395.69c0-1.09.87-1.95,1.99-1.95s1.95.87,1.95,1.95v18.84c0,1.09-.87,1.95-1.95,1.95s-1.99-.87-1.99-1.95v-18.84Z" style="fill:#fff;"/><path d="m290.73,405.17v-.06c0-6.31,4.87-11.6,11.76-11.6s11.69,5.22,11.69,11.53v.06c0,6.31-4.87,11.6-11.76,11.6s-11.69-5.22-11.69-11.53Zm19.32,0v-.06c0-4.36-3.17-7.98-7.62-7.98s-7.56,3.56-7.56,7.91v.06c0,4.36,3.17,7.94,7.62,7.94s7.56-3.52,7.56-7.88Z" style="fill:#fff;"/><path d="m319,395.76c0-1.09.87-1.99,1.99-1.99h.42c.96,0,1.51.48,2.05,1.15l11.21,14.51v-13.77c0-1.06.87-1.92,1.92-1.92s1.95.87,1.95,1.92v18.84c0,1.09-.83,1.95-1.92,1.95h-.16c-.93,0-1.51-.48-2.05-1.19l-11.53-14.93v14.22c0,1.06-.86,1.92-1.92,1.92s-1.95-.87-1.95-1.92v-18.8Z" style="fill:#fff;"/><path d="m343.07,413.76l8.33-18.58c.45-.99,1.25-1.6,2.37-1.6h.19c1.12,0,1.89.61,2.34,1.6l8.33,18.58c.16.29.22.58.22.83,0,1.06-.8,1.89-1.86,1.89-.93,0-1.57-.54-1.92-1.38l-1.83-4.2h-10.89l-1.89,4.32c-.32.8-.99,1.25-1.83,1.25-1.03,0-1.83-.8-1.83-1.83,0-.29.1-.58.26-.9Zm14.67-6.34l-3.94-9.07-3.94,9.07h7.88Z" style="fill:#fff;"/><path d="m369.16,395.69c0-1.09.87-1.95,1.99-1.95s1.95.87,1.95,1.95v17.04h10.16c.99,0,1.79.8,1.79,1.79s-.8,1.79-1.79,1.79h-12.11c-1.12,0-1.99-.87-1.99-1.99v-18.64Z" style="fill:#fff;"/><path d="m389.04,414.34v-18.45c0-1.12.87-1.99,1.99-1.99h13.04c.96,0,1.76.8,1.76,1.76s-.8,1.76-1.76,1.76h-11.08v5.83h9.64c.96,0,1.76.8,1.76,1.79s-.8,1.73-1.76,1.73h-9.64v6.02h11.24c.96,0,1.76.8,1.76,1.76s-.8,1.76-1.76,1.76h-13.2c-1.12,0-1.99-.87-1.99-1.99Z" style="fill:#fff;"/><path d="m18.99,382.44c-.45-.32-.77-.86-.77-1.5,0-1.03.83-1.83,1.86-1.83.54,0,.9.16,1.15.35,1.86,1.47,3.84,2.31,6.28,2.31s3.97-1.15,3.97-2.82v-.06c0-1.6-.9-2.47-5.06-3.43-4.77-1.15-7.46-2.56-7.46-6.7v-.06c0-3.84,3.2-6.5,7.66-6.5,2.82,0,5.09.73,7.11,2.08.45.26.87.8.87,1.57,0,1.03-.83,1.83-1.86,1.83-.38,0-.7-.1-1.03-.29-1.73-1.12-3.4-1.7-5.16-1.7-2.31,0-3.65,1.19-3.65,2.66v.06c0,1.73,1.03,2.5,5.35,3.52,4.74,1.15,7.18,2.85,7.18,6.57v.06c0,4.19-3.3,6.69-8.01,6.69-3.04,0-5.93-.96-8.43-2.82Z" style="fill:#fff;"/><path d="m40.28,364.31c0-1.09.87-1.95,1.99-1.95s1.95.87,1.95,1.95v18.84c0,1.09-.87,1.96-1.95,1.96s-1.99-.87-1.99-1.96v-18.84Z" style="fill:#fff;"/><path d="m49.63,382.44c-.45-.32-.77-.86-.77-1.5,0-1.03.83-1.83,1.86-1.83.54,0,.9.16,1.15.35,1.86,1.47,3.84,2.31,6.28,2.31s3.97-1.15,3.97-2.82v-.06c0-1.6-.9-2.47-5.06-3.43-4.77-1.15-7.46-2.56-7.46-6.7v-.06c0-3.84,3.2-6.5,7.66-6.5,2.82,0,5.09.73,7.11,2.08.45.26.87.8.87,1.57,0,1.03-.83,1.83-1.86,1.83-.38,0-.7-.1-1.03-.29-1.73-1.12-3.4-1.7-5.16-1.7-2.31,0-3.65,1.19-3.65,2.66v.06c0,1.73,1.03,2.5,5.35,3.52,4.74,1.15,7.18,2.85,7.18,6.57v.06c0,4.19-3.3,6.69-8.01,6.69-3.04,0-5.93-.96-8.43-2.82Z" style="fill:#fff;"/><path d="m75.72,366.17h-5.45c-1.03,0-1.83-.83-1.83-1.83s.8-1.82,1.83-1.82h14.9c.99,0,1.79.83,1.79,1.82s-.8,1.83-1.79,1.83h-5.48v16.98c0,1.09-.9,1.96-1.99,1.96s-1.99-.87-1.99-1.96v-16.98Z" style="fill:#fff;"/><path d="m90.96,382.95v-18.45c0-1.12.87-1.99,1.99-1.99h13.04c.96,0,1.76.8,1.76,1.76s-.8,1.76-1.76,1.76h-11.08v5.83h9.64c.96,0,1.76.8,1.76,1.79s-.8,1.73-1.76,1.73h-9.64v6.02h11.24c.96,0,1.76.8,1.76,1.76s-.8,1.76-1.76,1.76h-13.2c-1.12,0-1.99-.86-1.99-1.99Z" style="fill:#fff;"/><path d="m112.41,364.37c0-1.09.87-1.99,1.99-1.99h.42c.87,0,1.44.45,1.83,1.06l6.79,10.64,6.82-10.67c.42-.67.99-1.03,1.79-1.03h.42c1.12,0,1.99.9,1.99,1.99v18.77c0,1.09-.87,1.96-1.99,1.96-1.06,0-1.95-.9-1.95-1.96v-13.45l-5.48,8.23c-.42.64-.93,1.03-1.67,1.03s-1.22-.38-1.63-1.03l-5.45-8.17v13.42c0,1.09-.86,1.92-1.95,1.92s-1.92-.83-1.92-1.92v-18.8Z" style="fill:#fff;"/><path d="m138.91,382.38l8.33-18.58c.45-.99,1.25-1.6,2.37-1.6h.19c1.12,0,1.89.61,2.34,1.6l8.33,18.58c.16.29.22.58.22.83,0,1.06-.8,1.89-1.86,1.89-.93,0-1.57-.55-1.92-1.38l-1.83-4.2h-10.89l-1.89,4.32c-.32.8-.99,1.25-1.83,1.25-1.03,0-1.83-.8-1.83-1.83,0-.29.1-.58.26-.9Zm14.67-6.34l-3.94-9.06-3.94,9.06h7.88Z" style="fill:#fff;"/><path d="m174.77,364.31c0-1.09.87-1.95,1.99-1.95s1.95.87,1.95,1.95v18.84c0,1.09-.87,1.96-1.95,1.96s-1.99-.87-1.99-1.96v-18.84Z" style="fill:#fff;"/><path d="m184.69,364.37c0-1.09.87-1.99,1.99-1.99h.42c.96,0,1.51.48,2.05,1.15l11.21,14.51v-13.78c0-1.05.87-1.92,1.92-1.92s1.95.87,1.95,1.92v18.84c0,1.09-.83,1.96-1.92,1.96h-.16c-.93,0-1.51-.48-2.05-1.19l-11.53-14.93v14.22c0,1.06-.86,1.92-1.92,1.92s-1.95-.87-1.95-1.92v-18.8Z" style="fill:#fff;"/><path d="m209.98,364.5c0-1.12.87-1.99,1.99-1.99h13.07c.99,0,1.79.8,1.79,1.79s-.8,1.79-1.79,1.79h-11.12v6.12h9.67c.99,0,1.79.8,1.79,1.79s-.8,1.79-1.79,1.79h-9.67v7.33c0,1.09-.87,1.96-1.95,1.96s-1.99-.87-1.99-1.96v-18.64Z" style="fill:#fff;"/><path d="m229.8,373.79v-.06c0-6.31,4.87-11.6,11.76-11.6s11.69,5.22,11.69,11.53v.06c0,6.31-4.87,11.6-11.76,11.6s-11.69-5.22-11.69-11.53Zm19.32,0v-.06c0-4.36-3.17-7.98-7.63-7.98s-7.56,3.56-7.56,7.91v.06c0,4.36,3.17,7.95,7.62,7.95s7.56-3.52,7.56-7.88Z" style="fill:#fff;"/><path d="m258,364.5c0-1.12.87-1.99,1.99-1.99h8.01c2.82,0,5.03.83,6.47,2.24,1.19,1.22,1.86,2.88,1.86,4.84v.06c0,3.59-2.08,5.77-5.09,6.69l4.29,5.41c.38.48.64.9.64,1.51,0,1.09-.93,1.83-1.89,1.83-.9,0-1.47-.42-1.92-1.03l-5.45-6.95h-4.97v6.02c0,1.09-.87,1.96-1.95,1.96s-1.99-.87-1.99-1.96v-18.64Zm9.71,9.13c2.82,0,4.61-1.47,4.61-3.75v-.06c0-2.4-1.73-3.72-4.65-3.72h-5.73v7.53h5.77Z" style="fill:#fff;"/><path d="m281.15,364.37c0-1.09.87-1.99,1.99-1.99h.42c.87,0,1.44.45,1.83,1.06l6.79,10.64,6.82-10.67c.42-.67.99-1.03,1.79-1.03h.42c1.12,0,1.99.9,1.99,1.99v18.77c0,1.09-.87,1.96-1.99,1.96-1.06,0-1.95-.9-1.95-1.96v-13.45l-5.48,8.23c-.42.64-.93,1.03-1.67,1.03s-1.22-.38-1.63-1.03l-5.45-8.17v13.42c0,1.09-.87,1.92-1.95,1.92s-1.92-.83-1.92-1.92v-18.8Z" style="fill:#fff;"/><path d="m307.65,382.38l8.33-18.58c.45-.99,1.25-1.6,2.37-1.6h.19c1.12,0,1.89.61,2.34,1.6l8.33,18.58c.16.29.22.58.22.83,0,1.06-.8,1.89-1.86,1.89-.93,0-1.57-.55-1.92-1.38l-1.83-4.2h-10.89l-1.89,4.32c-.32.8-.99,1.25-1.83,1.25-1.03,0-1.83-.8-1.83-1.83,0-.29.1-.58.26-.9Zm14.67-6.34l-3.94-9.06-3.94,9.06h7.88Z" style="fill:#fff;"/><path d="m336.63,366.17h-5.45c-1.03,0-1.83-.83-1.83-1.83s.8-1.82,1.83-1.82h14.9c.99,0,1.79.83,1.79,1.82s-.8,1.83-1.79,1.83h-5.48v16.98c0,1.09-.9,1.96-1.99,1.96s-1.99-.87-1.99-1.96v-16.98Z" style="fill:#fff;"/><path d="m352.09,364.31c0-1.09.87-1.95,1.99-1.95s1.95.87,1.95,1.95v18.84c0,1.09-.87,1.96-1.95,1.96s-1.99-.87-1.99-1.96v-18.84Z" style="fill:#fff;"/><path d="m368.52,383.66l-7.85-18.45c-.13-.29-.22-.58-.22-.93,0-1.05.87-1.92,1.99-1.92,1.03,0,1.7.58,2.02,1.41l6.47,16.18,6.57-16.31c.26-.67.96-1.28,1.89-1.28,1.09,0,1.95.83,1.95,1.89,0,.29-.1.61-.19.83l-7.88,18.58c-.42.99-1.15,1.6-2.27,1.6h-.22c-1.09,0-1.83-.61-2.24-1.6Z" style="fill:#fff;"/><path d="m383.52,373.79v-.06c0-6.31,4.87-11.6,11.76-11.6s11.69,5.22,11.69,11.53v.06c0,6.31-4.87,11.6-11.76,11.6s-11.69-5.22-11.69-11.53Zm19.32,0v-.06c0-4.36-3.17-7.98-7.63-7.98s-7.56,3.56-7.56,7.91v.06c0,4.36,3.17,7.95,7.62,7.95s7.56-3.52,7.56-7.88Z" style="fill:#fff;"/><path d="m375.67,0H49.3C22.11,0,0,22.12,0,49.3v243.91c0,27.18,22.11,49.3,49.3,49.3h326.37c27.19,0,49.3-22.12,49.3-49.3V49.3c0-27.18-22.11-49.3-49.3-49.3ZM8.5,186.16h62.84c53.92,0,102.35,23.95,135.23,61.76-7.44,9.28-14.03,19.27-19.63,29.86-26.51-34.93-68.47-57.52-115.6-57.52H8.5v-34.1Zm40.8,147.85c-22.54,0-40.8-18.27-40.8-40.8v-21.61l62.84-.06c40.74,0,75.49,26.11,88.4,62.47H49.3Zm118.93-2.04c-13.88-40.17-52.06-69.1-96.89-69.1l-62.84.06v-33.99h62.84c45.87,0,86.52,22.76,111.26,57.58-6.62,14.27-11.51,29.52-14.37,45.45Zm248.24-38.76c0,22.53-18.26,40.8-40.8,40.8h-110.97c12.91-36.36,47.66-62.47,88.4-62.47l63.37.06v21.61Zm0-30.28l-63.37-.06c-44.83,0-83.02,28.93-96.89,69.11h0c-.23.68-.46,1.35-.67,2.03h-35.2c3.27-13.88,8.67-26.95,15.84-38.85,1.78-2.95,3.67-5.83,5.66-8.64,24.74-34.82,65.39-57.58,111.26-57.58h63.37v33.99Zm0-42.67h-63.37c-47.13,0-89.09,22.59-115.6,57.52-1.97,2.6-3.86,5.26-5.65,7.99-8.93,13.57-15.65,28.71-19.63,44.92-.27,1.1-.53,2.21-.77,3.32h-34.77c2.39-13.53,6.31-26.54,11.58-38.85,1.35-3.18,2.8-6.31,4.33-9.39,5.49-11.03,12.08-21.41,19.63-31.01,1.83-2.33,3.71-4.61,5.65-6.84,32.88-37.81,81.31-61.76,135.23-61.76h63.37v34.1Zm0-42.77h-63.37c-56.04,0-106.43,24.67-140.88,63.72-34.45-39.05-84.84-63.72-140.88-63.72H8.5V49.3c0-22.53,18.26-40.8,40.8-40.8h326.37c22.54,0,40.8,18.27,40.8,40.8v128.19Z" style="fill:#fff;"/><g id="c"><path d="m100.96,139.18c-6.04,0-11.96-1.04-17.77-3.11-5.81-2.07-11.09-5.26-15.85-9.56l10.3-12.34c3.62,2.94,7.34,5.28,11.15,7.02,3.81,1.74,7.98,2.6,12.51,2.6,3.62,0,6.43-.66,8.43-1.98,2-1.32,3-3.15,3-5.49v-.23c0-1.13-.21-2.13-.62-3-.42-.87-1.21-1.68-2.38-2.43-1.17-.75-2.8-1.51-4.88-2.26-2.08-.75-4.78-1.55-8.11-2.38-4.01-.98-7.64-2.08-10.9-3.28-3.25-1.21-6.01-2.7-8.28-4.47-2.27-1.77-4.03-3.98-5.28-6.62-1.25-2.64-1.87-5.92-1.87-9.85v-.23c0-3.62.67-6.88,2.02-9.79,1.35-2.9,3.24-5.41,5.68-7.53,2.44-2.11,5.35-3.74,8.73-4.87,3.38-1.13,7.11-1.7,11.19-1.7,5.81,0,11.15.87,16.01,2.6,4.87,1.74,9.34,4.23,13.41,7.47l-9.05,13.13c-3.55-2.41-7.02-4.32-10.41-5.72-3.4-1.4-6.79-2.09-10.19-2.09s-5.94.66-7.64,1.98c-1.7,1.32-2.55,2.96-2.55,4.92v.23c0,1.28.25,2.4.74,3.34.49.94,1.38,1.79,2.67,2.55,1.29.75,3.04,1.47,5.28,2.15,2.23.68,5.05,1.47,8.46,2.38,4.01,1.06,7.58,2.25,10.72,3.56,3.14,1.32,5.79,2.91,7.94,4.75,2.16,1.85,3.78,4.02,4.88,6.51s1.65,5.47,1.65,8.94v.23c0,3.92-.71,7.41-2.14,10.47-1.42,3.06-3.41,5.62-5.96,7.7-2.55,2.08-5.59,3.66-9.13,4.75-3.53,1.09-7.45,1.64-11.75,1.64Z" style="fill:#fff;"/><path d="m148.72,58.82h17.43v79.23h-17.43V58.82Z" style="fill:#fff;"/><path d="m215.95,58.25h16.07l33.95,79.79h-18.22l-7.24-17.77h-33.5l-7.24,17.77h-17.77l33.95-79.79Zm18.33,46.63l-10.53-25.69-10.53,25.69h21.05Z" style="fill:#fff;"/><path d="m281.03,58.82h16.07l37.12,48.78v-48.78h17.2v79.23h-14.83l-38.37-50.37v50.37h-17.2V58.82Z" style="fill:#fff;"/></g></g></svg>