<?xml version="1.0" encoding="UTF-8"?><svg id="a" xmlns="http://www.w3.org/2000/svg" viewBox="0 0 1641 343"><g id="c"><path d="m515.01,333.97l24.12-53.82c1.3-2.88,3.62-4.64,6.87-4.64h.56c3.25,0,5.47,1.77,6.77,4.64l24.12,53.82c.47.83.65,1.67.65,2.41,0,3.06-2.32,5.47-5.38,5.47-2.69,0-4.55-1.58-5.57-3.99l-5.29-12.15h-31.55l-5.47,12.52c-.93,2.32-2.88,3.62-5.29,3.62-2.97,0-5.29-2.32-5.29-5.29,0-.84.28-1.67.74-2.6Zm42.5-18.37l-11.41-26.26-11.41,26.26h22.83Z" style="fill:#fff;"/><path d="m584.92,309.1v-.18c0-18.19,13.92-33.59,33.5-33.59,9.75,0,16.24,2.32,22.18,6.59,1.11.84,2.32,2.41,2.32,4.64,0,3.06-2.51,5.66-5.66,5.66-1.48,0-2.6-.65-3.53-1.3-4.17-3.06-8.72-5.1-15.77-5.1-11.97,0-21.06,10.49-21.06,22.92v.19c0,13.36,8.81,23.2,22.08,23.2,6.13,0,11.69-1.95,15.68-4.92v-12.16h-12.8c-2.78,0-5.1-2.13-5.1-4.92s2.32-5.01,5.1-5.01h18.1c3.25,0,5.75,2.51,5.75,5.76v17.35c0,3.25-1.3,5.56-3.99,7.24-5.57,3.71-13.36,7.05-23.1,7.05-20.32,0-33.68-14.48-33.68-33.41Z" style="fill:#fff;"/><path d="m660.68,282.2c0-3.25,2.51-5.76,5.76-5.76h23.2c8.16,0,14.57,2.41,18.74,6.5,3.43,3.53,5.38,8.35,5.38,14.01v.18c0,10.39-6.03,16.71-14.75,19.39l12.43,15.68c1.11,1.39,1.85,2.59,1.85,4.36,0,3.15-2.69,5.29-5.47,5.29-2.6,0-4.27-1.21-5.57-2.97l-15.77-20.13h-14.38v17.45c0,3.15-2.51,5.66-5.66,5.66s-5.76-2.51-5.76-5.66v-54Zm28.11,26.44c8.17,0,13.36-4.27,13.36-10.86v-.18c0-6.96-5.01-10.77-13.46-10.77h-16.61v21.81h16.7Z" style="fill:#fff;"/><path d="m728.56,281.64c0-3.16,2.51-5.66,5.75-5.66s5.66,2.51,5.66,5.66v54.56c0,3.15-2.51,5.66-5.66,5.66s-5.75-2.51-5.75-5.66v-54.56Z" style="fill:#fff;"/><path d="m754.61,309.1v-.18c0-18.47,13.83-33.59,33.5-33.59,10.02,0,16.61,2.97,22.27,7.33,1.21.93,2.23,2.51,2.23,4.54,0,3.16-2.51,5.57-5.66,5.57-1.58,0-2.69-.56-3.43-1.11-4.45-3.62-9.28-5.85-15.5-5.85-12.34,0-21.43,10.21-21.43,22.92v.19c0,12.71,9,23.01,21.43,23.01,6.87,0,11.51-2.22,16.24-6.22.83-.74,2.04-1.3,3.43-1.3,2.88,0,5.38,2.41,5.38,5.29,0,1.76-.84,3.15-1.85,4.08-6.13,5.39-13.09,8.72-23.57,8.72-18.93,0-33.03-14.75-33.03-33.41Z" style="fill:#fff;"/><path d="m821.37,309.1v-.18c0-18.28,14.1-33.59,34.05-33.59s33.87,15.13,33.87,33.41v.19c0,18.28-14.11,33.59-34.06,33.59s-33.87-15.13-33.87-33.41Zm55.95,0v-.18c0-12.62-9.19-23.11-22.09-23.11s-21.9,10.3-21.9,22.92v.19c0,12.62,9.18,23.01,22.08,23.01s21.9-10.21,21.9-22.83Z" style="fill:#fff;"/><path d="m903.25,281.64c0-3.16,2.51-5.66,5.75-5.66s5.66,2.51,5.66,5.66v49.36h29.42c2.88,0,5.19,2.32,5.19,5.2s-2.32,5.19-5.19,5.19h-35.08c-3.25,0-5.75-2.51-5.75-5.75v-54Z" style="fill:#fff;"/><path d="m954.24,309.1v-.18c0-18.28,14.1-33.59,34.05-33.59s33.87,15.13,33.87,33.41v.19c0,18.28-14.11,33.59-34.05,33.59s-33.87-15.13-33.87-33.41Zm55.95,0v-.18c0-12.62-9.19-23.11-22.08-23.11s-21.9,10.3-21.9,22.92v.19c0,12.62,9.18,23.01,22.08,23.01s21.9-10.21,21.9-22.83Z" style="fill:#fff;"/><path d="m1064.13,281.82c0-3.15,2.51-5.75,5.75-5.75h1.21c2.78,0,4.36,1.39,5.94,3.34l32.47,42.03v-39.9c0-3.06,2.51-5.57,5.57-5.57s5.66,2.51,5.66,5.57v54.56c0,3.15-2.41,5.66-5.57,5.66h-.46c-2.69,0-4.36-1.39-5.94-3.43l-33.41-43.24v41.2c0,3.06-2.51,5.57-5.56,5.57s-5.66-2.51-5.66-5.57v-54.47Z" style="fill:#fff;"/><path d="m1133.86,333.97l24.12-53.82c1.3-2.88,3.62-4.64,6.87-4.64h.56c3.25,0,5.47,1.77,6.77,4.64l24.12,53.82c.46.83.65,1.67.65,2.41,0,3.06-2.32,5.47-5.38,5.47-2.69,0-4.55-1.58-5.57-3.99l-5.29-12.15h-31.55l-5.47,12.52c-.93,2.32-2.88,3.62-5.29,3.62-2.97,0-5.29-2.32-5.29-5.29,0-.84.28-1.67.74-2.6Zm42.5-18.37l-11.41-26.26-11.41,26.26h22.83Z" style="fill:#fff;"/><path d="m1206.37,336.38v-.28c0-1.95.74-3.71,2.13-5.29l36.56-44.26h-32.57c-2.69,0-5.01-2.23-5.01-5.01s2.32-5.1,5.01-5.1h42.68c2.78,0,5.1,2.32,5.1,5.01v.28c0,1.95-.74,3.62-2.04,5.29l-36.65,44.26h33.78c2.78,0,5.1,2.32,5.1,5.1s-2.32,5.01-5.1,5.01h-43.89c-2.69,0-5.1-2.32-5.1-5.01Z" style="fill:#fff;"/><path d="m1274.99,281.64c0-3.16,2.51-5.66,5.75-5.66s5.66,2.51,5.66,5.66v54.56c0,3.15-2.51,5.66-5.66,5.66s-5.75-2.51-5.75-5.66v-54.56Z" style="fill:#fff;"/><path d="m1301.04,309.1v-.18c0-18.28,14.1-33.59,34.05-33.59s33.87,15.13,33.87,33.41v.19c0,18.28-14.11,33.59-34.05,33.59s-33.87-15.13-33.87-33.41Zm55.95,0v-.18c0-12.62-9.19-23.11-22.08-23.11s-21.9,10.3-21.9,22.92v.19c0,12.62,9.18,23.01,22.08,23.01s21.9-10.21,21.9-22.83Z" style="fill:#fff;"/><path d="m1382.91,281.82c0-3.15,2.51-5.75,5.76-5.75h1.2c2.78,0,4.36,1.39,5.94,3.34l32.47,42.03v-39.9c0-3.06,2.51-5.57,5.57-5.57s5.66,2.51,5.66,5.57v54.56c0,3.15-2.41,5.66-5.57,5.66h-.46c-2.69,0-4.36-1.39-5.94-3.43l-33.41-43.24v41.2c0,3.06-2.5,5.57-5.56,5.57s-5.66-2.51-5.66-5.57v-54.47Z" style="fill:#fff;"/><path d="m1452.64,333.97l24.12-53.82c1.3-2.88,3.62-4.64,6.87-4.64h.56c3.25,0,5.47,1.77,6.77,4.64l24.12,53.82c.46.83.65,1.67.65,2.41,0,3.06-2.32,5.47-5.38,5.47-2.69,0-4.55-1.58-5.57-3.99l-5.29-12.15h-31.55l-5.47,12.52c-.93,2.32-2.88,3.62-5.29,3.62-2.97,0-5.29-2.32-5.29-5.29,0-.84.28-1.67.74-2.6Zm42.5-18.37l-11.41-26.26-11.41,26.26h22.83Z" style="fill:#fff;"/><path d="m1528.21,281.64c0-3.16,2.51-5.66,5.76-5.66s5.66,2.51,5.66,5.66v49.36h29.42c2.88,0,5.19,2.32,5.19,5.2s-2.32,5.19-5.19,5.19h-35.07c-3.25,0-5.76-2.51-5.76-5.75v-54Z" style="fill:#fff;"/><path d="m1585.8,335.64v-53.45c0-3.25,2.51-5.76,5.76-5.76h37.76c2.79,0,5.1,2.32,5.1,5.1s-2.32,5.1-5.1,5.1h-32.1v16.89h27.93c2.78,0,5.1,2.32,5.1,5.19s-2.32,5.01-5.1,5.01h-27.93v17.45h32.57c2.79,0,5.1,2.32,5.1,5.1s-2.32,5.1-5.1,5.1h-38.23c-3.25,0-5.76-2.51-5.76-5.75Z" style="fill:#fff;"/><path d="m516.49,243.25c-1.3-.93-2.22-2.5-2.22-4.36,0-2.97,2.41-5.29,5.38-5.29,1.58,0,2.6.47,3.34,1.02,5.38,4.27,11.14,6.68,18.19,6.68s11.5-3.34,11.5-8.16v-.19c0-4.65-2.59-7.15-14.66-9.93-13.83-3.34-21.62-7.43-21.62-19.4v-.18c0-11.14,9.28-18.84,22.18-18.84,8.16,0,14.75,2.13,20.6,6.02,1.3.75,2.51,2.32,2.51,4.55,0,2.97-2.41,5.29-5.38,5.29-1.11,0-2.04-.28-2.97-.84-5.01-3.24-9.84-4.92-14.94-4.92-6.68,0-10.58,3.44-10.58,7.71v.18c0,5.01,2.97,7.24,15.49,10.21,13.74,3.34,20.78,8.26,20.78,19.02v.19c0,12.15-9.55,19.39-23.2,19.39-8.81,0-17.16-2.78-24.41-8.17Z" style="fill:#fff;"/><path d="m578.15,190.73c0-3.15,2.51-5.66,5.75-5.66s5.66,2.51,5.66,5.66v54.56c0,3.16-2.51,5.67-5.66,5.67s-5.75-2.51-5.75-5.67v-54.56Z" style="fill:#fff;"/><path d="m605.23,243.25c-1.3-.93-2.22-2.5-2.22-4.36,0-2.97,2.41-5.29,5.38-5.29,1.58,0,2.6.47,3.34,1.02,5.38,4.27,11.14,6.68,18.19,6.68s11.5-3.34,11.5-8.16v-.19c0-4.65-2.59-7.15-14.66-9.93-13.83-3.34-21.62-7.43-21.62-19.4v-.18c0-11.14,9.28-18.84,22.18-18.84,8.16,0,14.75,2.13,20.6,6.02,1.3.75,2.51,2.32,2.51,4.55,0,2.97-2.41,5.29-5.38,5.29-1.11,0-2.04-.28-2.97-.84-5.01-3.24-9.84-4.92-14.94-4.92-6.68,0-10.58,3.44-10.58,7.71v.18c0,5.01,2.97,7.24,15.49,10.21,13.74,3.34,20.78,8.26,20.78,19.02v.19c0,12.15-9.55,19.39-23.2,19.39-8.81,0-17.16-2.78-24.41-8.17Z" style="fill:#fff;"/><path d="m680.81,196.12h-15.77c-2.97,0-5.29-2.42-5.29-5.29s2.32-5.28,5.29-5.28h43.15c2.88,0,5.19,2.41,5.19,5.28s-2.32,5.29-5.19,5.29h-15.87v49.18c0,3.16-2.6,5.67-5.76,5.67s-5.75-2.51-5.75-5.67v-49.18Z" style="fill:#fff;"/><path d="m724.94,244.74v-53.45c0-3.25,2.51-5.75,5.76-5.75h37.76c2.79,0,5.1,2.31,5.1,5.1s-2.32,5.1-5.1,5.1h-32.1v16.89h27.93c2.78,0,5.1,2.32,5.1,5.2s-2.32,5.01-5.1,5.01h-27.93v17.44h32.57c2.79,0,5.1,2.32,5.1,5.1s-2.32,5.1-5.1,5.1h-38.23c-3.25,0-5.76-2.5-5.76-5.75Z" style="fill:#fff;"/><path d="m787.06,190.92c0-3.16,2.51-5.75,5.76-5.75h1.2c2.51,0,4.18,1.3,5.29,3.06l19.67,30.81,19.76-30.9c1.2-1.95,2.88-2.97,5.19-2.97h1.21c3.25,0,5.75,2.59,5.75,5.75v54.37c0,3.16-2.51,5.67-5.75,5.67-3.06,0-5.66-2.6-5.66-5.67v-38.97l-15.87,23.85c-1.2,1.85-2.69,2.97-4.82,2.97s-3.53-1.11-4.73-2.97l-15.78-23.67v38.88c0,3.16-2.5,5.57-5.66,5.57s-5.57-2.42-5.57-5.57v-54.47Z" style="fill:#fff;"/><path d="m863.84,243.07l24.12-53.82c1.3-2.88,3.62-4.64,6.87-4.64h.56c3.25,0,5.47,1.76,6.77,4.64l24.12,53.82c.47.83.65,1.67.65,2.41,0,3.06-2.32,5.48-5.38,5.48-2.69,0-4.55-1.58-5.57-3.99l-5.29-12.16h-31.55l-5.47,12.52c-.93,2.32-2.88,3.62-5.29,3.62-2.97,0-5.29-2.32-5.29-5.29,0-.83.28-1.67.74-2.59Zm42.5-18.38l-11.41-26.26-11.41,26.26h22.83Z" style="fill:#fff;"/><path d="m967.69,190.73c0-3.15,2.51-5.66,5.75-5.66s5.66,2.51,5.66,5.66v54.56c0,3.16-2.51,5.67-5.66,5.67s-5.75-2.51-5.75-5.67v-54.56Z" style="fill:#fff;"/><path d="m996.44,190.92c0-3.16,2.51-5.75,5.76-5.75h1.2c2.78,0,4.36,1.4,5.94,3.34l32.47,42.03v-39.9c0-3.05,2.51-5.56,5.57-5.56s5.66,2.51,5.66,5.56v54.56c0,3.16-2.41,5.67-5.57,5.67h-.46c-2.69,0-4.36-1.4-5.94-3.44l-33.41-43.24v41.2c0,3.06-2.5,5.57-5.56,5.57s-5.66-2.51-5.66-5.57v-54.47Z" style="fill:#fff;"/><path d="m1069.69,191.29c0-3.25,2.51-5.75,5.76-5.75h37.86c2.88,0,5.19,2.31,5.19,5.19s-2.32,5.2-5.19,5.2h-32.2v17.72h28.02c2.88,0,5.2,2.32,5.2,5.2s-2.32,5.2-5.2,5.2h-28.02v21.24c0,3.16-2.51,5.67-5.66,5.67s-5.76-2.51-5.76-5.67v-54Z" style="fill:#fff;"/><path d="m1127.08,218.2v-.19c0-18.28,14.1-33.59,34.05-33.59s33.87,15.12,33.87,33.4v.19c0,18.28-14.11,33.59-34.06,33.59s-33.87-15.13-33.87-33.4Zm55.95,0v-.19c0-12.62-9.19-23.11-22.09-23.11s-21.9,10.3-21.9,22.92v.19c0,12.62,9.18,23.01,22.08,23.01s21.9-10.21,21.9-22.83Z" style="fill:#fff;"/><path d="m1208.78,191.29c0-3.25,2.51-5.75,5.76-5.75h23.2c8.16,0,14.57,2.41,18.74,6.49,3.43,3.53,5.38,8.35,5.38,14.01v.19c0,10.39-6.03,16.7-14.75,19.39l12.43,15.68c1.11,1.4,1.85,2.6,1.85,4.36,0,3.16-2.69,5.29-5.47,5.29-2.6,0-4.27-1.21-5.57-2.97l-15.77-20.14h-14.38v17.44c0,3.16-2.51,5.67-5.66,5.67s-5.76-2.51-5.76-5.67v-54Zm28.11,26.44c8.17,0,13.36-4.27,13.36-10.86v-.19c0-6.96-5.01-10.76-13.46-10.76h-16.61v21.81h16.7Z" style="fill:#fff;"/><path d="m1275.82,190.92c0-3.16,2.51-5.75,5.75-5.75h1.21c2.51,0,4.18,1.3,5.29,3.06l19.67,30.81,19.76-30.9c1.2-1.95,2.88-2.97,5.19-2.97h1.21c3.25,0,5.75,2.59,5.75,5.75v54.37c0,3.16-2.51,5.67-5.75,5.67-3.06,0-5.66-2.6-5.66-5.67v-38.97l-15.87,23.85c-1.2,1.85-2.69,2.97-4.82,2.97s-3.53-1.11-4.73-2.97l-15.78-23.67v38.88c0,3.16-2.51,5.57-5.66,5.57s-5.57-2.42-5.57-5.57v-54.47Z" style="fill:#fff;"/><path d="m1352.59,243.07l24.12-53.82c1.3-2.88,3.62-4.64,6.87-4.64h.56c3.25,0,5.47,1.76,6.77,4.64l24.12,53.82c.46.83.65,1.67.65,2.41,0,3.06-2.32,5.48-5.38,5.48-2.69,0-4.55-1.58-5.57-3.99l-5.29-12.16h-31.55l-5.47,12.52c-.93,2.32-2.88,3.62-5.29,3.62-2.97,0-5.29-2.32-5.29-5.29,0-.83.28-1.67.74-2.59Zm42.5-18.38l-11.41-26.26-11.41,26.26h22.83Z" style="fill:#fff;"/><path d="m1436.52,196.12h-15.77c-2.97,0-5.29-2.42-5.29-5.29s2.32-5.28,5.29-5.28h43.15c2.88,0,5.19,2.41,5.19,5.28s-2.32,5.29-5.19,5.29h-15.87v49.18c0,3.16-2.6,5.67-5.76,5.67s-5.75-2.51-5.75-5.67v-49.18Z" style="fill:#fff;"/><path d="m1481.3,190.73c0-3.15,2.51-5.66,5.75-5.66s5.66,2.51,5.66,5.66v54.56c0,3.16-2.51,5.67-5.66,5.67s-5.75-2.51-5.75-5.67v-54.56Z" style="fill:#fff;"/><path d="m1528.88,246.78l-22.73-53.45c-.37-.83-.65-1.68-.65-2.7,0-3.05,2.51-5.56,5.76-5.56,2.97,0,4.92,1.67,5.84,4.08l18.74,46.86,19.02-47.24c.74-1.95,2.78-3.71,5.47-3.71,3.16,0,5.66,2.42,5.66,5.48,0,.83-.28,1.76-.56,2.41l-22.83,53.82c-1.2,2.88-3.34,4.64-6.59,4.64h-.65c-3.16,0-5.29-1.76-6.5-4.64Z" style="fill:#fff;"/><path d="m1572.35,218.2v-.19c0-18.28,14.1-33.59,34.05-33.59s33.87,15.12,33.87,33.4v.19c0,18.28-14.11,33.59-34.06,33.59s-33.87-15.13-33.87-33.4Zm55.95,0v-.19c0-12.62-9.19-23.11-22.09-23.11s-21.9,10.3-21.9,22.92v.19c0,12.62,9.18,23.01,22.08,23.01s21.9-10.21,21.9-22.83Z" style="fill:#fff;"/><path d="m375.67,0H49.3C22.11,0,0,22.12,0,49.3v243.91c0,27.18,22.11,49.3,49.3,49.3h326.37c27.19,0,49.3-22.12,49.3-49.3V49.3c0-27.18-22.11-49.3-49.3-49.3ZM8.5,186.16h62.84c53.92,0,102.35,23.95,135.23,61.76-7.44,9.28-14.03,19.27-19.63,29.86-26.51-34.93-68.47-57.52-115.6-57.52H8.5v-34.1Zm40.8,147.85c-22.54,0-40.8-18.27-40.8-40.8v-21.61l62.84-.06c40.74,0,75.49,26.11,88.4,62.47H49.3Zm118.93-2.04c-13.88-40.17-52.06-69.1-96.89-69.1l-62.84.06v-33.99h62.84c45.87,0,86.52,22.76,111.26,57.58-6.62,14.27-11.51,29.52-14.37,45.45Zm248.24-38.76c0,22.53-18.26,40.8-40.8,40.8h-110.97c12.91-36.36,47.66-62.47,88.4-62.47l63.37.06v21.61Zm0-30.28l-63.37-.06c-44.83,0-83.02,28.93-96.89,69.11h0c-.23.68-.46,1.35-.67,2.03h-35.2c3.27-13.88,8.67-26.95,15.84-38.85,1.78-2.95,3.67-5.83,5.66-8.64,24.74-34.82,65.39-57.58,111.26-57.58h63.37v33.99Zm0-42.67h-63.37c-47.13,0-89.09,22.59-115.6,57.52-1.97,2.6-3.86,5.26-5.65,7.99-8.93,13.57-15.65,28.71-19.63,44.92-.27,1.1-.53,2.21-.77,3.32h-34.77c2.39-13.53,6.31-26.54,11.58-38.85,1.35-3.18,2.8-6.31,4.33-9.39,5.49-11.03,12.08-21.41,19.63-31.01,1.83-2.33,3.71-4.61,5.65-6.84,32.88-37.81,81.31-61.76,135.23-61.76h63.37v34.1Zm0-42.77h-63.37c-56.04,0-106.43,24.67-140.88,63.72-34.45-39.05-84.84-63.72-140.88-63.72H8.5V49.3c0-22.53,18.26-40.8,40.8-40.8h326.37c22.54,0,40.8,18.27,40.8,40.8v128.19Z" style="fill:#fff;"/><g id="d"><path d="m100.96,139.18c-6.04,0-11.96-1.04-17.77-3.11-5.81-2.07-11.09-5.26-15.85-9.56l10.3-12.34c3.62,2.94,7.34,5.28,11.15,7.02,3.81,1.74,7.98,2.6,12.51,2.6,3.62,0,6.43-.66,8.43-1.98,2-1.32,3-3.15,3-5.49v-.23c0-1.13-.21-2.13-.62-3-.42-.87-1.21-1.68-2.38-2.43-1.17-.75-2.8-1.51-4.88-2.26-2.08-.75-4.78-1.55-8.11-2.38-4.01-.98-7.64-2.08-10.9-3.28-3.25-1.21-6.01-2.7-8.28-4.47-2.27-1.77-4.03-3.98-5.28-6.62-1.25-2.64-1.87-5.92-1.87-9.85v-.23c0-3.62.67-6.88,2.02-9.79,1.35-2.9,3.24-5.41,5.68-7.53,2.44-2.11,5.35-3.74,8.73-4.87,3.38-1.13,7.11-1.7,11.19-1.7,5.81,0,11.15.87,16.01,2.6,4.87,1.74,9.34,4.23,13.41,7.47l-9.05,13.13c-3.55-2.41-7.02-4.32-10.41-5.72-3.4-1.4-6.79-2.09-10.19-2.09s-5.94.66-7.64,1.98c-1.7,1.32-2.55,2.96-2.55,4.92v.23c0,1.28.25,2.4.74,3.34.49.94,1.38,1.79,2.67,2.55,1.29.75,3.04,1.47,5.28,2.15,2.23.68,5.05,1.47,8.46,2.38,4.01,1.06,7.58,2.25,10.72,3.56,3.14,1.32,5.79,2.91,7.94,4.75,2.16,1.85,3.78,4.02,4.88,6.51s1.65,5.47,1.65,8.94v.23c0,3.92-.71,7.41-2.14,10.47-1.42,3.06-3.41,5.62-5.96,7.7-2.55,2.08-5.59,3.66-9.13,4.75-3.53,1.09-7.45,1.64-11.75,1.64Z" style="fill:#fff;"/><path d="m148.72,58.82h17.43v79.23h-17.43V58.82Z" style="fill:#fff;"/><path d="m215.95,58.25h16.07l33.95,79.79h-18.22l-7.24-17.77h-33.5l-7.24,17.77h-17.77l33.95-79.79Zm18.33,46.63l-10.53-25.69-10.53,25.69h21.05Z" style="fill:#fff;"/><path d="m281.03,58.82h16.07l37.12,48.78v-48.78h17.2v79.23h-14.83l-38.37-50.37v50.37h-17.2V58.82Z" style="fill:#fff;"/></g></g></svg>