<?xml version="1.0" encoding="UTF-8"?><svg id="a" xmlns="http://www.w3.org/2000/svg" xmlns:xlink="http://www.w3.org/1999/xlink" viewBox="0 0 426 340"><defs><clipPath id="c"><rect x="-446" width="425.2" height="339.25" rx="42.52" ry="42.52" style="fill:none;"/></clipPath><linearGradient id="d" x1="-278.1" y1="276.26" x2="82.05" y2="276.26" gradientUnits="userSpaceOnUse"><stop offset=".06" stop-color="#cd680e"/><stop offset=".38" stop-color="#f9b100"/><stop offset=".5" stop-color="#fab709"/><stop offset=".71" stop-color="#fdc924"/><stop offset=".8" stop-color="#ffd332"/></linearGradient><linearGradient id="e" x1="-233.51" y1="298.55" x2="82.05" y2="298.55" gradientUnits="userSpaceOnUse"><stop offset=".06" stop-color="#ab4420"/><stop offset=".38" stop-color="#ef7d00"/><stop offset=".46" stop-color="#f08605"/><stop offset=".6" stop-color="#f5a115"/><stop offset=".78" stop-color="#fdcc2e"/><stop offset=".8" stop-color="#ffd332"/></linearGradient><linearGradient id="f" x1="-189.11" y1="320.75" x2="82.05" y2="320.75" gradientUnits="userSpaceOnUse"><stop offset=".06" stop-color="#6f150c"/><stop offset=".38" stop-color="#e84e0f"/><stop offset=".51" stop-color="#e9570b"/><stop offset=".73" stop-color="#ed7203"/><stop offset=".8" stop-color="#ef7d00"/></linearGradient><clipPath id="h"><rect width="425.2" height="339.25" rx="42.52" ry="42.52" style="fill:none;"/></clipPath><linearGradient id="i" x1="212.6" y1="339.25" x2="212.6" y2="0" gradientUnits="userSpaceOnUse"><stop offset=".2" stop-color="#86d1f5"/><stop offset=".55" stop-color="#009fe3"/><stop offset=".61" stop-color="#0495db"/><stop offset=".73" stop-color="#0e7ac5"/><stop offset=".88" stop-color="#204fa3"/><stop offset="1" stop-color="#312783"/></linearGradient><linearGradient id="j" x1="-103.4" y1="276.26" x2="256.74" y2="276.26" gradientUnits="userSpaceOnUse"><stop offset=".15" stop-color="#eae985"/><stop offset=".62" stop-color="#a5bb1c"/><stop offset=".7" stop-color="#9cb11d"/><stop offset=".84" stop-color="#869623"/><stop offset="1" stop-color="#656e2b"/></linearGradient><linearGradient id="k" x1="-103.4" y1="298.55" x2="212.16" y2="298.55" gradientUnits="userSpaceOnUse"><stop offset=".2" stop-color="#b6d382"/><stop offset=".62" stop-color="#76b82b"/><stop offset=".68" stop-color="#6cb12b"/><stop offset=".78" stop-color="#519e2d"/><stop offset=".9" stop-color="#268030"/><stop offset="1" stop-color="#063"/></linearGradient><linearGradient id="l" x1="167.9" x2="528.05" xlink:href="#d"/><linearGradient id="m" x1="212.49" x2="528.05" xlink:href="#e"/><linearGradient id="n" x1="256.89" x2="528.05" xlink:href="#f"/><linearGradient id="o" x1="-103.4" y1="320.75" x2="167.76" y2="320.75" gradientUnits="userSpaceOnUse"><stop offset=".2" stop-color="#5d9258"/><stop offset=".62" stop-color="#007b3d"/><stop offset=".7" stop-color="#027138"/><stop offset=".83" stop-color="#08562a"/><stop offset="1" stop-color="#122d16"/></linearGradient></defs><g id="b"><g style="clip-path:url(#c);"><path d="m82.05,181.29v190.59h-360.14c0-105.62,85.62-191.24,191.24-191.24H82.05v.65Z" style="fill:url(#d);"/><path d="m86.57,376.41h-369.19v-4.52c0-107.95,87.82-195.77,195.77-195.77H86.57v200.29Zm-360.09-9.04H77.53v-182.2H-86.85c-101.44,0-184.26,81.33-186.67,182.2Z" style="fill:#fff;"/><path d="m-233.51,371.88c0-81,65.66-146.66,146.66-146.66H82.05v146.66H-233.51Z" style="fill:url(#e);"/><path d="m86.57,376.41H-238.04v-4.52c0-83.36,67.82-151.19,151.19-151.19H86.57v155.71Zm-315.49-9.04H77.53v-137.62H-86.85c-76.87,0-139.68,61.33-142.07,137.62Z" style="fill:#fff;"/><path d="m-189.11,371.88c0-56.48,45.78-102.26,102.26-102.26l168.9.17v102.09H-189.11Z" style="fill:url(#f);"/><path d="m86.57,376.41H-193.63v-4.52c0-58.88,47.9-106.78,106.78-106.78l173.42.17v111.13Zm-271.06-9.04H77.53v-93.05l-164.38-.16c-52.37,0-95.26,41.42-97.63,93.22Z" style="fill:#fff;"/></g></g><g id="g"><g style="clip-path:url(#h);"><rect width="425.2" height="339.25" style="fill:url(#i);"/><path d="m-103.4,181.29v190.59s360.14,0,360.14,0c0-105.62-85.62-191.24-191.24-191.24H-103.4v.65Z" style="fill:url(#j);"/><path d="m261.26,376.41H-107.92v-200.29H65.5c107.95,0,195.77,87.82,195.77,195.77v4.52Zm-360.14-9.04H252.16c-2.41-100.88-85.22-182.2-186.67-182.2H-98.88v182.2Z" style="fill:#fff;"/><path d="m212.16,371.88c0-81-65.66-146.66-146.66-146.66H-103.4s0,146.66,0,146.66H212.16Z" style="fill:url(#k);"/><path d="m216.68,376.41H-107.92v-155.71H65.5c83.36,0,151.19,67.82,151.19,151.19v4.52Zm-315.56-9.04H207.57c-2.39-76.3-65.21-137.62-142.07-137.62H-98.88v137.62Z" style="fill:#fff;"/><path d="m528.05,181.29v190.59H167.9c0-105.62,85.62-191.24,191.24-191.24h168.9v.65Z" style="fill:url(#l);"/><path d="m532.57,376.41H163.38v-4.52c0-107.95,87.82-195.77,195.77-195.77h173.42v200.29Zm-360.09-9.04h351.05v-182.2h-164.38c-101.44,0-184.26,81.33-186.67,182.2Z" style="fill:#fff;"/><path d="m96.36,136.19c-6.29,0-12.46-1.08-18.52-3.24-6.06-2.16-11.56-5.48-16.52-9.97l10.74-12.86c3.77,3.07,7.65,5.51,11.62,7.31,3.97,1.81,8.32,2.71,13.04,2.71,3.78,0,6.7-.69,8.79-2.06,2.08-1.37,3.13-3.28,3.13-5.72v-.24c0-1.18-.22-2.22-.65-3.13-.44-.9-1.26-1.75-2.49-2.54-1.22-.78-2.92-1.57-5.09-2.36-2.17-.78-4.99-1.61-8.46-2.48-4.18-1.02-7.96-2.16-11.36-3.42-3.39-1.26-6.27-2.81-8.63-4.66-2.37-1.85-4.2-4.15-5.5-6.9-1.3-2.75-1.95-6.17-1.95-10.26v-.24c0-3.78.7-7.18,2.11-10.2,1.41-3.03,3.38-5.64,5.92-7.84,2.54-2.2,5.57-3.89,9.1-5.07,3.52-1.18,7.41-1.77,11.66-1.77,6.05,0,11.62.91,16.69,2.71,5.07,1.81,9.73,4.4,13.98,7.79l-9.44,13.68c-3.7-2.52-7.31-4.5-10.85-5.96-3.54-1.45-7.08-2.18-10.62-2.18s-6.19.69-7.96,2.06c-1.77,1.38-2.65,3.09-2.65,5.13v.24c0,1.34.26,2.5.77,3.48.51.98,1.44,1.87,2.78,2.65,1.34.79,3.17,1.53,5.5,2.24,2.33.71,5.26,1.53,8.81,2.48,4.18,1.1,7.9,2.34,11.18,3.72,3.27,1.38,6.03,3.03,8.28,4.96,2.25,1.93,3.94,4.19,5.09,6.78s1.72,5.7,1.72,9.32v.24c0,4.09-.74,7.73-2.23,10.91-1.48,3.18-3.56,5.86-6.21,8.02-2.66,2.16-5.83,3.81-9.51,4.95-3.68,1.14-7.77,1.71-12.25,1.71Z" style="fill:#fff;"/><path d="m146.14,52.44h18.17v82.57h-18.17V52.44Z" style="fill:#fff;"/><path d="m216.21,51.85h16.75l35.39,83.16h-18.99l-7.55-18.52h-34.92l-7.55,18.52h-18.52l35.39-83.16Zm19.11,48.6l-10.97-26.78-10.97,26.78h21.94Z" style="fill:#fff;"/><path d="m284.04,52.44h16.75l38.69,50.84v-50.84h17.93v82.57h-15.45l-39.99-52.49v52.49h-17.93V52.44Z" style="fill:#fff;"/><path d="m212.49,371.88c0-81,65.66-146.66,146.66-146.66h168.9v146.66H212.49Z" style="fill:url(#m);"/><path d="m532.57,376.41H207.96v-4.52c0-83.36,67.82-151.19,151.19-151.19h173.42v155.71Zm-315.49-9.04h306.45v-137.62h-164.38c-76.87,0-139.68,61.33-142.07,137.62Z" style="fill:#fff;"/><path d="m256.89,371.88c0-56.48,45.78-102.26,102.26-102.26l168.9.17v102.09h-271.16Z" style="fill:url(#n);"/><path d="m532.57,376.41H252.37v-4.52c0-58.88,47.9-106.78,106.78-106.78l173.42.17v111.13Zm-271.06-9.04h262.01v-93.05l-164.38-.16c-52.37,0-95.26,41.42-97.63,93.22Z" style="fill:#fff;"/><path d="m167.76,371.88c0-56.48-45.78-102.26-102.26-102.26l-168.9.17v102.09s271.16,0,271.16,0Z" style="fill:url(#o);"/><path d="m172.28,376.41H-107.92v-111.13l173.42-.17c58.88,0,106.79,47.9,106.79,106.78v4.52Zm-271.16-9.04H163.13c-2.37-51.8-45.26-93.22-97.64-93.22l-164.38.16v93.05Z" style="fill:#fff;"/></g></g></svg>