<?xml version="1.0" encoding="UTF-8"?><svg id="a" xmlns="http://www.w3.org/2000/svg" xmlns:xlink="http://www.w3.org/1999/xlink" viewBox="0 0 185 150"><defs><clipPath id="b"><rect x="3.75" y="3.74" width="177.21" height="141.39" rx="17.72" ry="17.72" style="fill:none;"/></clipPath><linearGradient id="c" x1="92.36" y1="6.86" x2="92.36" y2="148.25" gradientTransform="translate(0 151.98) scale(1 -1)" gradientUnits="userSpaceOnUse"><stop offset=".2" stop-color="#86d1f5"/><stop offset=".55" stop-color="#009fe3"/><stop offset=".61" stop-color="#0495db"/><stop offset=".73" stop-color="#0e7ac5"/><stop offset=".88" stop-color="#204fa3"/><stop offset="1" stop-color="#312783"/></linearGradient><linearGradient id="d" x1="-39.34" y1="33.11" x2="110.76" y2="33.11" gradientTransform="translate(0 151.98) scale(1 -1)" gradientUnits="userSpaceOnUse"><stop offset=".15" stop-color="#eae985"/><stop offset=".62" stop-color="#a5bb1c"/><stop offset=".7" stop-color="#9cb11d"/><stop offset=".84" stop-color="#869623"/><stop offset="1" stop-color="#656e2b"/></linearGradient><linearGradient id="e" x1="-39.34" y1="23.81" x2="92.19" y2="23.81" gradientTransform="translate(0 151.98) scale(1 -1)" gradientUnits="userSpaceOnUse"><stop offset=".2" stop-color="#b6d382"/><stop offset=".62" stop-color="#76b82b"/><stop offset=".68" stop-color="#6cb12b"/><stop offset=".78" stop-color="#519e2d"/><stop offset=".9" stop-color="#268030"/><stop offset="1" stop-color="#063"/></linearGradient><linearGradient id="f" x1="73.74" y1="33.11" x2="223.84" y2="33.11" gradientTransform="translate(0 151.98) scale(1 -1)" gradientUnits="userSpaceOnUse"><stop offset=".06" stop-color="#cd680e"/><stop offset=".38" stop-color="#f9b100"/><stop offset=".5" stop-color="#fab709"/><stop offset=".71" stop-color="#fdc924"/><stop offset=".8" stop-color="#ffd332"/></linearGradient><linearGradient id="g" x1="92.32" y1="23.81" x2="223.84" y2="23.81" gradientTransform="translate(0 151.98) scale(1 -1)" gradientUnits="userSpaceOnUse"><stop offset=".06" stop-color="#ab4420"/><stop offset=".38" stop-color="#ef7d00"/><stop offset=".46" stop-color="#f08605"/><stop offset=".6" stop-color="#f5a115"/><stop offset=".78" stop-color="#fdcc2e"/><stop offset=".8" stop-color="#ffd332"/></linearGradient><linearGradient id="h" x1="110.83" y1="14.56" x2="223.84" y2="14.56" gradientTransform="translate(0 151.98) scale(1 -1)" gradientUnits="userSpaceOnUse"><stop offset=".06" stop-color="#6f150c"/><stop offset=".38" stop-color="#e84e0f"/><stop offset=".51" stop-color="#e9570b"/><stop offset=".73" stop-color="#ed7203"/><stop offset=".8" stop-color="#ef7d00"/></linearGradient><linearGradient id="i" x1="-39.33" y1="14.56" x2="73.68" y2="14.56" gradientTransform="translate(0 151.98) scale(1 -1)" gradientUnits="userSpaceOnUse"><stop offset=".2" stop-color="#5d9258"/><stop offset=".62" stop-color="#007b3d"/><stop offset=".7" stop-color="#027138"/><stop offset=".83" stop-color="#08562a"/><stop offset="1" stop-color="#122d16"/></linearGradient></defs><rect x="0" width="184.7" height="148.87" rx="21.46" ry="21.46" style="fill:#fff;"/><g style="clip-path:url(#b);"><rect x="3.75" y="3.74" width="177.21" height="141.39" style="fill:url(#c);"/><path d="m-39.35,79.3v79.43H110.75c0-44.02-35.69-79.71-79.71-79.71H-39.35v.27h0Z" style="fill:url(#d);"/><path d="m112.64,160.62H-41.23v-83.48H31.05c44.99,0,81.59,36.6,81.59,81.59v1.88h0Zm-150.1-3.77H108.85c-1.01-42.04-35.52-75.94-77.8-75.94H-37.46s0,75.94,0,75.94Z" style="fill:#fff;"/><path d="m92.18,158.74c0-33.76-27.37-61.13-61.13-61.13H-39.35v61.13H92.18Z" style="fill:url(#e);"/><path d="m94.06,160.62H-41.23v-64.9H31.05c34.74,0,63.01,28.27,63.01,63.01v1.88h0Zm-131.52-3.77h127.72c-1-31.8-27.18-57.36-59.21-57.36H-37.46v57.36Z" style="fill:#fff;"/><path d="m223.82,79.3v79.43H73.73c0-44.02,35.69-79.71,79.71-79.71h70.39v.27h0Z" style="fill:url(#f);"/><path d="m225.71,160.62H71.85v-1.88c0-44.99,36.6-81.59,81.59-81.59h72.28v83.48h0Zm-150.08-3.77h146.31v-75.94h-68.51c-42.28,0-76.79,33.9-77.8,75.94h0Z" style="fill:#fff;"/><path d="m43.91,60.5c-2.62,0-5.2-.45-7.72-1.35-2.52-.9-4.82-2.29-6.88-4.15l4.47-5.36c1.57,1.28,3.19,2.29,4.84,3.05,1.65.75,3.47,1.13,5.43,1.13,1.57,0,2.79-.29,3.66-.86s1.3-1.37,1.3-2.38v-.1c0-.49-.09-.93-.27-1.3-.18-.38-.53-.73-1.04-1.06-.51-.33-1.22-.66-2.12-.98-.9-.33-2.08-.67-3.52-1.03-1.74-.43-3.32-.9-4.73-1.43-1.41-.52-2.61-1.17-3.6-1.94-.99-.77-1.75-1.73-2.29-2.88s-.81-2.57-.81-4.28v-.1c0-1.57.29-2.99.88-4.25.59-1.26,1.41-2.35,2.47-3.27s2.32-1.62,3.79-2.11,3.09-.74,4.86-.74c2.52,0,4.84.38,6.96,1.13,2.11.75,4.06,1.84,5.83,3.24l-3.93,5.7c-1.54-1.05-3.05-1.88-4.52-2.48-1.47-.61-2.95-.91-4.42-.91s-2.58.29-3.32.86c-.74.57-1.11,1.29-1.11,2.14v.1c0,.56.11,1.04.32,1.45s.6.78,1.16,1.11,1.32.64,2.29.93,2.19.64,3.67,1.03c1.74.46,3.29.98,4.66,1.55,1.36.57,2.51,1.26,3.45,2.07.94.8,1.64,1.75,2.12,2.83s.72,2.38.72,3.88v.1c0,1.7-.31,3.22-.93,4.55-.62,1.33-1.48,2.44-2.59,3.34s-2.43,1.59-3.96,2.06c-1.54.47-3.24.71-5.11.71h-.01Z" style="fill:#fff;"/><path d="m64.66,25.6h7.57v34.42h-7.57V25.6Z" style="fill:#fff;"/><path d="m93.86,25.35h6.98l14.75,34.66h-7.92l-3.15-7.72h-14.55l-3.15,7.72h-7.72l14.75-34.66h.01Zm7.96,20.26l-4.57-11.16-4.57,11.16h9.14Z" style="fill:#fff;"/><path d="m122.13,25.6h6.98l16.13,21.19v-21.19h7.47v34.42h-6.44l-16.67-21.88v21.88h-7.47s0-34.42,0-34.42Z" style="fill:#fff;"/><path d="m92.31,158.74c0-33.76,27.37-61.13,61.13-61.13h70.39v61.13H92.31Z" style="fill:url(#g);"/><path d="m225.71,160.62H90.43v-1.88c0-34.74,28.27-63.01,63.01-63.01h72.28v64.9h0Zm-131.49-3.77h127.72v-57.36h-68.51c-32.04,0-58.22,25.56-59.21,57.36Z" style="fill:#fff;"/><path d="m110.82,158.74c0-23.54,19.08-42.62,42.62-42.62l70.39.07v42.55s-113.01,0-113.01,0Z" style="fill:url(#h);"/><path d="m225.71,160.62h-116.78v-1.88c0-24.54,19.96-44.5,44.5-44.5l72.28.07v46.32h0Zm-112.97-3.77h109.2v-38.78l-68.51-.07c-21.83,0-39.7,17.26-40.69,38.85h0Z" style="fill:#fff;"/><path d="m73.67,158.74c0-23.54-19.08-42.62-42.62-42.62l-70.39.07v42.55h113.01Z" style="fill:url(#i);"/><path d="m75.55,160.62H-41.23v-46.32l72.28-.07c24.54,0,44.51,19.96,44.51,44.5v1.88h0Zm-113.01-3.77h109.2c-.99-21.59-18.86-38.85-40.69-38.85l-68.51.07s0,38.78,0,38.78Z" style="fill:#fff;"/></g></svg>