<?xml version="1.0" encoding="utf-8"?>
<!-- Generator: Adobe Illustrator 27.3.1, SVG Export Plug-In . SVG Version: 6.00 Build 0)  -->
<svg version="1.1" id="Layer_3" xmlns="http://www.w3.org/2000/svg" xmlns:xlink="http://www.w3.org/1999/xlink" x="0px" y="0px"
	 viewBox="0 0 910 150" style="enable-background:new 0 0 910 150;" xml:space="preserve">
<style type="text/css">
	.st0{fill:#FFFFFF;}
</style>
<path class="st0" d="M13.6,65.1c-4.6,0-6.9,1.6-6.9,4.8c0,1.7,0.5,2.8,1.6,3.6c1.1,0.7,3.5,1.6,7.1,2.6c3.7,1,6.3,2.2,7.8,3.7
	c1.5,1.4,2.3,3.6,2.3,6.7c0,3.9-1.1,6.8-3.4,8.8c-2.2,1.9-5.2,2.9-9,2.9c-3.1,0-6.5-0.4-10.2-1.1l-1.9-0.4l0.6-4.8
	c4.9,0.6,8.6,1,11.1,1c4.5,0,6.7-2,6.7-6c0-1.6-0.5-2.7-1.5-3.4c-1-0.8-3.3-1.6-6.8-2.4c-3.5-0.9-6.2-2.1-7.9-3.7
	c-1.7-1.6-2.6-4-2.6-7.4c0-3.4,1.1-5.9,3.2-7.6c2.2-1.7,5.2-2.6,9.1-2.6c2.8,0,6.1,0.3,9.8,1l1.9,0.3L24.4,66
	C19.3,65.4,15.7,65.1,13.6,65.1z M31.4,97.5V70.5h5.9v27.1H31.4z M31.4,65.9v-6.2h5.9v6.2H31.4z M63.3,76.1
	c-4.3-0.6-7.3-0.9-9.3-0.9c-1.9,0-3.2,0.2-4,0.7c-0.7,0.4-1.1,1.1-1.1,2.1s0.4,1.7,1.2,2.1c0.8,0.4,2.7,0.9,5.7,1.4
	c3,0.5,5.2,1.3,6.4,2.4c1.3,1.1,1.9,3.1,1.9,6s-0.9,4.9-2.8,6.3c-1.8,1.3-4.5,2-8,2c-2.2,0-5-0.3-8.3-0.9L43.5,97l0.2-4.9
	c4.3,0.6,7.4,0.9,9.4,0.9s3.3-0.2,4.1-0.7c0.8-0.5,1.2-1.2,1.2-2.3c0-1.1-0.4-1.8-1.2-2.2c-0.8-0.4-2.6-0.9-5.6-1.4
	c-2.9-0.5-5.1-1.3-6.4-2.3s-2.1-3-2.1-5.7c0-2.8,0.9-4.9,2.8-6.2c1.9-1.4,4.3-2.1,7.3-2.1c2.3,0,5.1,0.3,8.5,0.9l1.7,0.3L63.3,76.1z
	 M84.4,75.5H77v11.9c0,2.2,0.2,3.7,0.5,4.4c0.3,0.7,1.2,1.1,2.5,1.1l4.4-0.2l0.3,4.7c-2.4,0.5-4.3,0.7-5.5,0.7
	c-3.1,0-5.2-0.7-6.3-2.1c-1.1-1.4-1.7-4.1-1.7-8V75.5h-3.5v-5h3.5v-7.8H77v7.8h7.5V75.5z M108.5,92.7l1.5-0.2l0.1,4.4
	c-4.1,0.8-7.8,1.2-10.9,1.2c-4,0-6.9-1.1-8.7-3.3c-1.7-2.2-2.6-5.7-2.6-10.6c0-9.6,3.9-14.4,11.7-14.4c7.6,0,11.4,4.1,11.4,12.4
	l-0.4,4.2H93.9c0,2.2,0.5,3.9,1.5,4.9c0.9,1,2.7,1.6,5.2,1.6C103.2,93,105.8,92.9,108.5,92.7z M105.3,82c0-2.7-0.4-4.5-1.3-5.6
	c-0.8-1.1-2.3-1.6-4.3-1.6c-2,0-3.5,0.6-4.4,1.7c-0.9,1.1-1.4,3-1.4,5.5H105.3z M122.6,97.5h-5.9V70.5h5.8v1.7
	c2.6-1.5,4.9-2.3,7-2.3c3.1,0,5.4,0.9,6.9,2.7c3.3-1.8,6.5-2.7,9.8-2.7c3.2,0,5.5,1,6.9,3c1.3,2,2,5.4,2,10.1v14.5h-5.8V83.2
	c0-2.9-0.3-5-0.9-6.2c-0.6-1.2-1.8-1.8-3.7-1.8c-1.6,0-3.4,0.4-5.2,1.1l-0.9,0.4c0.3,0.7,0.4,3,0.4,6.9v14h-5.8V83.6
	c0-3.2-0.3-5.4-0.9-6.7c-0.6-1.2-1.8-1.8-3.8-1.8c-1.8,0-3.5,0.4-5,1.1l-0.8,0.3V97.5z M182.1,78.8v12.3c0,0.8,0.2,1.4,0.6,1.8
	c0.4,0.4,1,0.6,1.8,0.7l-0.2,4.5c-3.1,0-5.5-0.7-7.2-2c-2.9,1.3-5.8,2-8.7,2c-5.4,0-8.1-2.9-8.1-8.6c0-2.7,0.7-4.7,2.2-6
	c1.5-1.2,3.7-2,6.8-2.2l7-0.6v-1.9c0-1.4-0.3-2.5-1-3c-0.6-0.6-1.5-0.9-2.8-0.9c-2.3,0-5.2,0.1-8.7,0.4l-1.7,0.1l-0.2-4.2
	c3.9-0.9,7.5-1.4,10.8-1.4c3.3,0,5.7,0.7,7.1,2.2C181.4,73.5,182.1,75.7,182.1,78.8z M170,85.5c-2.5,0.2-3.7,1.6-3.7,4.1
	s1.1,3.7,3.3,3.7c1.8,0,3.7-0.3,5.7-0.9l1-0.3v-7.2L170,85.5z M202.1,97.5V60.5h6v37.1H202.1z M221.8,97.5h-5.9V70.5h5.8v1.7
	c2.6-1.5,5.1-2.3,7.5-2.3c3.6,0,6.1,1,7.4,3.1c1.3,2,2,5.4,2,10.1v14.5h-5.8V83.2c0-2.9-0.3-5-1-6.2c-0.6-1.2-1.9-1.8-3.8-1.8
	c-1.8,0-3.6,0.4-5.3,1.1l-0.8,0.3V97.5z M252.6,75.5v22h-5.8v-22h-3.1v-5h3.1v-1.7c0-3.9,0.6-6.5,1.7-8c1.1-1.4,3.1-2.2,6-2.2
	l5.8,0.5l-0.1,4.8c-1.8-0.1-3.2-0.1-4.4-0.1c-1.2,0-2,0.4-2.4,1.1c-0.5,0.7-0.7,2-0.7,3.8v1.7h7.1v5H252.6z M265.3,73.4
	c1.9-2.3,5-3.5,9.3-3.5s7.4,1.2,9.3,3.5c1.9,2.3,2.8,5.9,2.8,10.6c0,4.7-0.9,8.2-2.7,10.6s-4.9,3.6-9.4,3.6s-7.6-1.2-9.4-3.6
	c-1.8-2.4-2.7-5.9-2.7-10.6C262.6,79.3,263.5,75.8,265.3,73.4z M269.8,91c0.8,1.4,2.5,2.2,4.9,2.2c2.4,0,4-0.7,4.9-2.2
	s1.2-3.8,1.2-7.1c0-3.3-0.5-5.6-1.4-7c-0.9-1.4-2.5-2.1-4.8-2.1s-3.9,0.7-4.8,2.1c-0.9,1.4-1.3,3.7-1.3,7
	C268.5,87.2,268.9,89.6,269.8,91z M292.5,97.5V70.5h5.8v3.2c3.1-2,6.1-3.3,9.2-3.8v5.9c-3.1,0.6-5.8,1.4-8,2.4l-1.2,0.5v18.9H292.5z
	 M318,97.5h-5.9V70.5h5.8v1.7c2.6-1.5,4.9-2.3,7-2.3c3.1,0,5.4,0.9,6.9,2.7c3.3-1.8,6.5-2.7,9.8-2.7s5.5,1,6.9,3c1.3,2,2,5.4,2,10.1
	v14.5h-5.8V83.2c0-2.9-0.3-5-0.9-6.2c-0.6-1.2-1.8-1.8-3.7-1.8c-1.6,0-3.4,0.4-5.2,1.1l-0.9,0.4c0.3,0.7,0.4,3,0.4,6.9v14h-5.8V83.6
	c0-3.2-0.3-5.4-0.9-6.7c-0.6-1.2-1.8-1.8-3.8-1.8c-1.8,0-3.5,0.4-5,1.1l-0.8,0.3V97.5z M377.5,78.8v12.3c0,0.8,0.2,1.4,0.6,1.8
	c0.4,0.4,1,0.6,1.8,0.7l-0.2,4.5c-3.1,0-5.5-0.7-7.2-2c-2.9,1.3-5.8,2-8.7,2c-5.4,0-8.1-2.9-8.1-8.6c0-2.7,0.7-4.7,2.2-6
	c1.5-1.2,3.7-2,6.8-2.2l7-0.6v-1.9c0-1.4-0.3-2.5-1-3c-0.6-0.6-1.5-0.9-2.8-0.9c-2.3,0-5.2,0.1-8.7,0.4l-1.7,0.1l-0.2-4.2
	c3.9-0.9,7.5-1.4,10.8-1.4c3.3,0,5.7,0.7,7.1,2.2C376.7,73.5,377.5,75.7,377.5,78.8z M365.3,85.5c-2.5,0.2-3.7,1.6-3.7,4.1
	s1.1,3.7,3.3,3.7c1.8,0,3.7-0.3,5.7-0.9l1-0.3v-7.2L365.3,85.5z M399.4,75.5H392v11.9c0,2.2,0.2,3.7,0.5,4.4
	c0.3,0.7,1.2,1.1,2.5,1.1l4.4-0.2l0.3,4.7c-2.4,0.5-4.3,0.7-5.5,0.7c-3.1,0-5.2-0.7-6.3-2.1c-1.1-1.4-1.7-4.1-1.7-8V75.5h-3.5v-5
	h3.5v-7.8h5.8v7.8h7.5V75.5z M404.3,97.5V70.5h5.9v27.1H404.3z M404.3,65.9v-6.2h5.9v6.2H404.3z M414.8,70.5h6.2l5.2,22h1.7l5.4-22
	h6l-7,27.1h-10.5L414.8,70.5z M444.9,73.4c1.9-2.3,5-3.5,9.3-3.5c4.3,0,7.4,1.2,9.3,3.5c1.9,2.3,2.8,5.9,2.8,10.6
	c0,4.7-0.9,8.2-2.7,10.6c-1.8,2.4-4.9,3.6-9.4,3.6c-4.4,0-7.6-1.2-9.4-3.6c-1.8-2.4-2.7-5.9-2.7-10.6
	C442.2,79.3,443.1,75.8,444.9,73.4z M449.4,91c0.8,1.4,2.5,2.2,4.9,2.2c2.4,0,4-0.7,4.9-2.2c0.8-1.4,1.2-3.8,1.2-7.1
	c0-3.3-0.5-5.6-1.4-7c-0.9-1.4-2.5-2.1-4.8-2.1c-2.3,0-3.9,0.7-4.8,2.1c-0.9,1.4-1.3,3.7-1.3,7C448.1,87.2,448.5,89.6,449.4,91z
	 M481.6,97.5l9.1-37.1h12l9.2,37.1h-6.1l-2-8h-14.2l-2,8H481.6z M495.4,65.5l-4.6,18.8h11.9l-4.5-18.8H495.4z M539.7,101.2
	c0,5.9-4.3,8.9-12.8,8.9c-4.1,0-7.2-0.6-9.1-1.7c-2-1.1-3-3.2-3-6.1c0-1.3,0.3-2.5,1-3.5c0.6-0.9,1.7-2,3.1-3.1
	c-1.2-0.8-1.8-2.1-1.8-4c0-0.7,0.5-1.9,1.5-3.5l0.5-0.8c-2.6-1.6-3.9-4.3-3.9-8.1c0-3.2,1-5.6,2.9-7.1s4.6-2.3,7.9-2.3
	c1.6,0,3.2,0.2,4.7,0.5l0.8,0.2l8.4-0.2v4.8l-4.5-0.3c1,1.3,1.5,2.7,1.5,4.4c0,3.5-0.9,6-2.7,7.4c-1.8,1.3-4.5,2-8.3,2
	c-0.9,0-1.7-0.1-2.4-0.2c-0.5,1.2-0.8,2.2-0.8,2.9c0,0.6,0.3,1.1,1,1.4c0.7,0.3,2.3,0.4,4.9,0.4c4.3,0,7.2,0.6,8.8,1.7
	C538.9,96,539.7,98.1,539.7,101.2z M520.5,101.8c0,1.3,0.5,2.2,1.5,2.7c1,0.5,2.7,0.8,5.2,0.8c4.4,0,6.5-1.2,6.5-3.7
	c0-1.4-0.4-2.3-1.2-2.7c-0.8-0.4-2.3-0.6-4.6-0.6l-5.3-0.3c-0.8,0.6-1.4,1.2-1.7,1.8C520.7,100.3,520.5,101,520.5,101.8z
	 M520.9,79.4c0,1.7,0.4,2.9,1.2,3.7c0.8,0.8,2.1,1.1,3.8,1.1s3-0.4,3.8-1.1c0.8-0.8,1.2-2,1.2-3.7c0-1.7-0.4-2.9-1.2-3.6
	c-0.8-0.8-2.1-1.2-3.8-1.2C522.6,74.5,520.9,76.2,520.9,79.4z M544.5,97.5V70.5h5.8v3.2c3.1-2,6.1-3.3,9.2-3.8v5.9
	c-3.1,0.6-5.8,1.4-8,2.4l-1.2,0.5v18.9H544.5z M564,97.5V70.5h5.9v27.1H564z M564,65.9v-6.2h5.9v6.2H564z M587.2,69.9
	c1.9,0,4.2,0.3,6.8,0.8l1.4,0.3l-0.2,4.7c-2.8-0.3-5-0.4-6.3-0.4c-2.7,0-4.6,0.6-5.5,1.8c-0.9,1.2-1.4,3.5-1.4,6.9
	c0,3.4,0.5,5.7,1.4,7c0.9,1.3,2.8,1.9,5.6,1.9l6.3-0.4l0.2,4.7c-3.6,0.6-6.4,1-8.2,1c-4.1,0-7-1.1-8.7-3.3
	c-1.7-2.2-2.5-5.9-2.5-10.9c0-5.1,0.9-8.6,2.7-10.8C580.3,71,583.2,69.9,587.2,69.9z M602.2,73.4c1.9-2.3,5-3.5,9.3-3.5
	c4.3,0,7.4,1.2,9.3,3.5c1.9,2.3,2.8,5.9,2.8,10.6c0,4.7-0.9,8.2-2.7,10.6c-1.8,2.4-4.9,3.6-9.4,3.6c-4.4,0-7.6-1.2-9.4-3.6
	s-2.7-5.9-2.7-10.6C599.4,79.3,600.4,75.8,602.2,73.4z M606.6,91c0.8,1.4,2.5,2.2,4.9,2.2c2.4,0,4-0.7,4.9-2.2s1.2-3.8,1.2-7.1
	c0-3.3-0.5-5.6-1.4-7c-0.9-1.4-2.5-2.1-4.8-2.1c-2.3,0-3.9,0.7-4.8,2.1c-0.9,1.4-1.3,3.7-1.3,7C605.4,87.2,605.8,89.6,606.6,91z
	 M629.8,97.5V59.2h5.9v38.3H629.8z M644.6,73.4c1.9-2.3,5-3.5,9.3-3.5c4.3,0,7.4,1.2,9.3,3.5c1.9,2.3,2.8,5.9,2.8,10.6
	c0,4.7-0.9,8.2-2.7,10.6c-1.8,2.4-4.9,3.6-9.4,3.6c-4.4,0-7.6-1.2-9.4-3.6s-2.7-5.9-2.7-10.6C641.8,79.3,642.7,75.8,644.6,73.4z
	 M649,91c0.8,1.4,2.5,2.2,4.9,2.2c2.4,0,4-0.7,4.9-2.2s1.2-3.8,1.2-7.1c0-3.3-0.5-5.6-1.4-7c-0.9-1.4-2.5-2.1-4.8-2.1
	c-2.3,0-3.9,0.7-4.8,2.1c-0.9,1.4-1.3,3.7-1.3,7C647.8,87.2,648.2,89.6,649,91z M684.4,97.5V60.5h10.5l11.3,31.8h0.8V60.5h6v37.1
	h-10.3l-11.5-31.8h-0.8v31.8H684.4z M740.8,78.8v12.3c0,0.8,0.2,1.4,0.6,1.8c0.4,0.4,1,0.6,1.8,0.7l-0.2,4.5c-3.1,0-5.5-0.7-7.2-2
	c-2.9,1.3-5.8,2-8.7,2c-5.4,0-8.1-2.9-8.1-8.6c0-2.7,0.7-4.7,2.2-6c1.5-1.2,3.7-2,6.8-2.2l7-0.6v-1.9c0-1.4-0.3-2.5-1-3
	c-0.6-0.6-1.5-0.9-2.8-0.9c-2.3,0-5.2,0.1-8.7,0.4l-1.7,0.1l-0.2-4.2c3.9-0.9,7.5-1.4,10.8-1.4c3.3,0,5.7,0.7,7.1,2.2
	C740.1,73.5,740.8,75.7,740.8,78.8z M728.7,85.5c-2.5,0.2-3.7,1.6-3.7,4.1s1.1,3.7,3.3,3.7c1.8,0,3.7-0.3,5.7-0.9l1-0.3v-7.2
	L728.7,85.5z M746.9,75.7v-5.2h20.1v5.2l-13,16.6h13v5.2h-20.1v-5.2l13-16.6H746.9z M772.8,97.5V70.5h5.9v27.1H772.8z M772.8,65.9
	v-6.2h5.9v6.2H772.8z M787.3,73.4c1.9-2.3,5-3.5,9.3-3.5c4.3,0,7.4,1.2,9.3,3.5c1.9,2.3,2.8,5.9,2.8,10.6c0,4.7-0.9,8.2-2.7,10.6
	s-4.9,3.6-9.4,3.6c-4.4,0-7.6-1.2-9.4-3.6c-1.8-2.4-2.7-5.9-2.7-10.6C784.5,79.3,785.5,75.8,787.3,73.4z M791.7,91
	c0.8,1.4,2.5,2.2,4.9,2.2c2.4,0,4-0.7,4.9-2.2s1.2-3.8,1.2-7.1c0-3.3-0.5-5.6-1.4-7c-0.9-1.4-2.5-2.1-4.8-2.1
	c-2.3,0-3.9,0.7-4.8,2.1c-0.9,1.4-1.3,3.7-1.3,7C790.5,87.2,790.9,89.6,791.7,91z M820.4,97.5h-5.9V70.5h5.8v1.7
	c2.6-1.5,5.1-2.3,7.5-2.3c3.6,0,6.1,1,7.4,3.1c1.3,2,2,5.4,2,10.1v14.5h-5.8V83.2c0-2.9-0.3-5-1-6.2c-0.6-1.2-1.9-1.8-3.8-1.8
	c-1.8,0-3.6,0.4-5.3,1.1l-0.8,0.3V97.5z M864.1,78.8v12.3c0,0.8,0.2,1.4,0.6,1.8c0.4,0.4,1,0.6,1.8,0.7l-0.2,4.5
	c-3.1,0-5.5-0.7-7.2-2c-2.9,1.3-5.8,2-8.7,2c-5.4,0-8.1-2.9-8.1-8.6c0-2.7,0.7-4.7,2.2-6c1.5-1.2,3.7-2,6.8-2.2l7-0.6v-1.9
	c0-1.4-0.3-2.5-1-3c-0.6-0.6-1.5-0.9-2.8-0.9c-2.3,0-5.2,0.1-8.7,0.4l-1.7,0.1l-0.2-4.2c3.9-0.9,7.5-1.4,10.8-1.4
	c3.3,0,5.7,0.7,7.1,2.2C863.4,73.5,864.1,75.7,864.1,78.8z M852,85.5c-2.5,0.2-3.7,1.6-3.7,4.1s1.1,3.7,3.3,3.7
	c1.8,0,3.7-0.3,5.7-0.9l1-0.3v-7.2L852,85.5z M871.8,97.5V59.2h5.9v38.3H871.8z M904.5,92.7l1.5-0.2l0.1,4.4
	c-4.1,0.8-7.8,1.2-10.9,1.2c-4,0-6.9-1.1-8.7-3.3c-1.7-2.2-2.6-5.7-2.6-10.6c0-9.6,3.9-14.4,11.7-14.4c7.6,0,11.4,4.1,11.4,12.4
	l-0.4,4.2h-16.8c0,2.2,0.5,3.9,1.5,4.9c0.9,1,2.7,1.6,5.2,1.6C899.1,93,901.8,92.9,904.5,92.7z M901.2,82c0-2.7-0.4-4.5-1.3-5.6
	c-0.8-1.1-2.3-1.6-4.3-1.6c-2,0-3.5,0.6-4.4,1.7c-0.9,1.1-1.4,3-1.4,5.5H901.2z"/>
</svg>
